<?xml version="1.0" encoding="UTF-8" standalone="no"?>
<!-- Created with Inkscape (http://www.inkscape.org/) -->

<svg
   width="2000.0001"
   height="2000.0001"
   viewBox="0 0 529.16669 529.16669"
   version="1.1"
   id="svg1"
   xml:space="preserve"
   inkscape:version="1.3.2 (091e20e, 2023-11-25)"
   sodipodi:docname="CEASIOMpy_logo_new.svg"
   inkscape:export-filename="../CEASIOMpy_development/Logo_new/logo_white.svg"
   inkscape:export-xdpi="96"
   inkscape:export-ydpi="96"
   xmlns:inkscape="http://www.inkscape.org/namespaces/inkscape"
   xmlns:sodipodi="http://sodipodi.sourceforge.net/DTD/sodipodi-0.dtd"
   xmlns:xlink="http://www.w3.org/1999/xlink"
   xmlns="http://www.w3.org/2000/svg"
   xmlns:svg="http://www.w3.org/2000/svg"><sodipodi:namedview
     id="namedview1"
     pagecolor="#ffffff"
     bordercolor="#000000"
     borderopacity="0.25"
     inkscape:showpageshadow="2"
     inkscape:pageopacity="0.0"
     inkscape:pagecheckerboard="0"
     inkscape:deskcolor="#d1d1d1"
     inkscape:document-units="mm"
     inkscape:zoom="0.31571218"
     inkscape:cx="1118.107"
     inkscape:cy="969.23723"
     inkscape:window-width="1512"
     inkscape:window-height="921"
     inkscape:window-x="0"
     inkscape:window-y="61"
     inkscape:window-maximized="0"
     inkscape:current-layer="layer1"
     showguides="true"
     inkscape:export-bgcolor="#35405400" /><defs
     id="defs1"><linearGradient
       x1="2355"
       y1="641"
       x2="2355"
       y2="1734"
       gradientUnits="userSpaceOnUse"
       spreadMethod="reflect"
       id="linearGradient366"><stop
         offset="0"
         stop-color="#FF7F29"
         stop-opacity="1"
         id="stop245"
         style="stop-color:#ffffff;stop-opacity:1;" /><stop
         offset="0.0247934"
         stop-color="#FE7E2A"
         stop-opacity="1"
         id="stop246" /><stop
         offset="0.0247934"
         stop-color="#FE7E2C"
         stop-opacity="1"
         id="stop247" /><stop
         offset="0.0247934"
         stop-color="#FE7E2E"
         stop-opacity="1"
         id="stop248" /><stop
         offset="0.0330578"
         stop-color="#FE7E30"
         stop-opacity="1"
         id="stop249" /><stop
         offset="0.0413223"
         stop-color="#FE7E32"
         stop-opacity="1"
         id="stop250" /><stop
         offset="0.0495868"
         stop-color="#FE7E34"
         stop-opacity="1"
         id="stop251" /><stop
         offset="0.0578512"
         stop-color="#FE7E35"
         stop-opacity="1"
         id="stop252" /><stop
         offset="0.0661157"
         stop-color="#FE7E37"
         stop-opacity="1"
         id="stop253" /><stop
         offset="0.0743802"
         stop-color="#FE7E39"
         stop-opacity="1"
         id="stop254" /><stop
         offset="0.0826446"
         stop-color="#FE7E3B"
         stop-opacity="1"
         id="stop255" /><stop
         offset="0.0909091"
         stop-color="#FD7E3C"
         stop-opacity="1"
         id="stop256" /><stop
         offset="0.0991736"
         stop-color="#FD7E3E"
         stop-opacity="1"
         id="stop257" /><stop
         offset="0.107438"
         stop-color="#FD7E40"
         stop-opacity="1"
         id="stop258" /><stop
         offset="0.115702"
         stop-color="#FD7D42"
         stop-opacity="1"
         id="stop259" /><stop
         offset="0.123967"
         stop-color="#FD7D43"
         stop-opacity="1"
         id="stop260" /><stop
         offset="0.132231"
         stop-color="#FC7D45"
         stop-opacity="1"
         id="stop261" /><stop
         offset="0.140496"
         stop-color="#FC7D47"
         stop-opacity="1"
         id="stop262" /><stop
         offset="0.14876"
         stop-color="#FC7D48"
         stop-opacity="1"
         id="stop263" /><stop
         offset="0.157025"
         stop-color="#FC7D4A"
         stop-opacity="1"
         id="stop264" /><stop
         offset="0.165289"
         stop-color="#FB7D4C"
         stop-opacity="1"
         id="stop265" /><stop
         offset="0.173554"
         stop-color="#FB7C4D"
         stop-opacity="1"
         id="stop266" /><stop
         offset="0.181818"
         stop-color="#FB7C4F"
         stop-opacity="1"
         id="stop267" /><stop
         offset="0.190083"
         stop-color="#FA7C50"
         stop-opacity="1"
         id="stop268" /><stop
         offset="0.198347"
         stop-color="#FA7C52"
         stop-opacity="1"
         id="stop269" /><stop
         offset="0.206612"
         stop-color="#FA7B53"
         stop-opacity="1"
         id="stop270" /><stop
         offset="0.214876"
         stop-color="#F97B55"
         stop-opacity="1"
         id="stop271" /><stop
         offset="0.22314"
         stop-color="#F97B57"
         stop-opacity="1"
         id="stop272" /><stop
         offset="0.231405"
         stop-color="#F97B58"
         stop-opacity="1"
         id="stop273" /><stop
         offset="0.239669"
         stop-color="#F87B5A"
         stop-opacity="1"
         id="stop274" /><stop
         offset="0.247934"
         stop-color="#F87A5B"
         stop-opacity="1"
         id="stop275" /><stop
         offset="0.256198"
         stop-color="#F77A5C"
         stop-opacity="1"
         id="stop276" /><stop
         offset="0.264463"
         stop-color="#F77A5E"
         stop-opacity="1"
         id="stop277" /><stop
         offset="0.272727"
         stop-color="#F6795F"
         stop-opacity="1"
         id="stop278" /><stop
         offset="0.280992"
         stop-color="#F67961"
         stop-opacity="1"
         id="stop279" /><stop
         offset="0.289256"
         stop-color="#F67962"
         stop-opacity="1"
         id="stop280" /><stop
         offset="0.297521"
         stop-color="#F57964"
         stop-opacity="1"
         id="stop281" /><stop
         offset="0.305785"
         stop-color="#F57865"
         stop-opacity="1"
         id="stop282" /><stop
         offset="0.31405"
         stop-color="#F47866"
         stop-opacity="1"
         id="stop283" /><stop
         offset="0.322314"
         stop-color="#F37868"
         stop-opacity="1"
         id="stop284" /><stop
         offset="0.330579"
         stop-color="#F37769"
         stop-opacity="1"
         id="stop285" /><stop
         offset="0.338843"
         stop-color="#F2776A"
         stop-opacity="1"
         id="stop286" /><stop
         offset="0.347107"
         stop-color="#F2776C"
         stop-opacity="1"
         id="stop287" /><stop
         offset="0.355372"
         stop-color="#F1766D"
         stop-opacity="1"
         id="stop288" /><stop
         offset="0.363636"
         stop-color="#F1766E"
         stop-opacity="1"
         id="stop289" /><stop
         offset="0.371901"
         stop-color="#F0756F"
         stop-opacity="1"
         id="stop290" /><stop
         offset="0.380165"
         stop-color="#EF7571"
         stop-opacity="1"
         id="stop291" /><stop
         offset="0.38843"
         stop-color="#EF7572"
         stop-opacity="1"
         id="stop292" /><stop
         offset="0.396694"
         stop-color="#EE7473"
         stop-opacity="1"
         id="stop293" /><stop
         offset="0.404959"
         stop-color="#EE7474"
         stop-opacity="1"
         id="stop294" /><stop
         offset="0.413223"
         stop-color="#ED7376"
         stop-opacity="1"
         id="stop295" /><stop
         offset="0.421488"
         stop-color="#EC7377"
         stop-opacity="1"
         id="stop296" /><stop
         offset="0.429752"
         stop-color="#EC7378"
         stop-opacity="1"
         id="stop297" /><stop
         offset="0.438017"
         stop-color="#EB7279"
         stop-opacity="1"
         id="stop298" /><stop
         offset="0.446281"
         stop-color="#EA727A"
         stop-opacity="1"
         id="stop299" /><stop
         offset="0.454545"
         stop-color="#EA717B"
         stop-opacity="1"
         id="stop300" /><stop
         offset="0.46281"
         stop-color="#E9717C"
         stop-opacity="1"
         id="stop301" /><stop
         offset="0.471074"
         stop-color="#E8707E"
         stop-opacity="1"
         id="stop302" /><stop
         offset="0.479339"
         stop-color="#E7707F"
         stop-opacity="1"
         id="stop303" /><stop
         offset="0.487603"
         stop-color="#E76F80"
         stop-opacity="1"
         id="stop304" /><stop
         offset="0.495868"
         stop-color="#E66F81"
         stop-opacity="1"
         id="stop305" /><stop
         offset="0.504132"
         stop-color="#E56E82"
         stop-opacity="1"
         id="stop306" /><stop
         offset="0.512397"
         stop-color="#E46E83"
         stop-opacity="1"
         id="stop307" /><stop
         offset="0.520661"
         stop-color="#E36D84"
         stop-opacity="1"
         id="stop308" /><stop
         offset="0.528926"
         stop-color="#E36D85"
         stop-opacity="1"
         id="stop309" /><stop
         offset="0.53719"
         stop-color="#E26C86"
         stop-opacity="1"
         id="stop310" /><stop
         offset="0.545455"
         stop-color="#E16C87"
         stop-opacity="1"
         id="stop311" /><stop
         offset="0.553719"
         stop-color="#E06B88"
         stop-opacity="1"
         id="stop312" /><stop
         offset="0.561983"
         stop-color="#DF6B89"
         stop-opacity="1"
         id="stop313" /><stop
         offset="0.570248"
         stop-color="#DE6A89"
         stop-opacity="1"
         id="stop314" /><stop
         offset="0.578512"
         stop-color="#DE6A8A"
         stop-opacity="1"
         id="stop315" /><stop
         offset="0.586777"
         stop-color="#DD698B"
         stop-opacity="1"
         id="stop316" /><stop
         offset="0.595041"
         stop-color="#DC698C"
         stop-opacity="1"
         id="stop317" /><stop
         offset="0.603306"
         stop-color="#DB688D"
         stop-opacity="1"
         id="stop318" /><stop
         offset="0.61157"
         stop-color="#DA678E"
         stop-opacity="1"
         id="stop319" /><stop
         offset="0.619835"
         stop-color="#D9678F"
         stop-opacity="1"
         id="stop320" /><stop
         offset="0.628099"
         stop-color="#D8668F"
         stop-opacity="1"
         id="stop321" /><stop
         offset="0.636364"
         stop-color="#D76690"
         stop-opacity="1"
         id="stop322" /><stop
         offset="0.644628"
         stop-color="#D66591"
         stop-opacity="1"
         id="stop323" /><stop
         offset="0.652893"
         stop-color="#D56492"
         stop-opacity="1"
         id="stop324" /><stop
         offset="0.661157"
         stop-color="#D46492"
         stop-opacity="1"
         id="stop325" /><stop
         offset="0.669421"
         stop-color="#D36393"
         stop-opacity="1"
         id="stop326" /><stop
         offset="0.677686"
         stop-color="#D26394"
         stop-opacity="1"
         id="stop327" /><stop
         offset="0.68595"
         stop-color="#D16295"
         stop-opacity="1"
         id="stop328" /><stop
         offset="0.694215"
         stop-color="#D06195"
         stop-opacity="1"
         id="stop329" /><stop
         offset="0.702479"
         stop-color="#CF6196"
         stop-opacity="1"
         id="stop330" /><stop
         offset="0.710744"
         stop-color="#CE6097"
         stop-opacity="1"
         id="stop331" /><stop
         offset="0.719008"
         stop-color="#CD5F97"
         stop-opacity="1"
         id="stop332" /><stop
         offset="0.727273"
         stop-color="#CC5F98"
         stop-opacity="1"
         id="stop333" /><stop
         offset="0.735537"
         stop-color="#CB5E98"
         stop-opacity="1"
         id="stop334" /><stop
         offset="0.743802"
         stop-color="#CA5D99"
         stop-opacity="1"
         id="stop335" /><stop
         offset="0.752066"
         stop-color="#C95D9A"
         stop-opacity="1"
         id="stop336" /><stop
         offset="0.760331"
         stop-color="#C75C9A"
         stop-opacity="1"
         id="stop337" /><stop
         offset="0.768595"
         stop-color="#C65B9B"
         stop-opacity="1"
         id="stop338" /><stop
         offset="0.77686"
         stop-color="#C55A9B"
         stop-opacity="1"
         id="stop339" /><stop
         offset="0.785124"
         stop-color="#C45A9C"
         stop-opacity="1"
         id="stop340" /><stop
         offset="0.793388"
         stop-color="#C3599C"
         stop-opacity="1"
         id="stop341" /><stop
         offset="0.801653"
         stop-color="#C2589D"
         stop-opacity="1"
         id="stop342" /><stop
         offset="0.809917"
         stop-color="#C1579D"
         stop-opacity="1"
         id="stop343" /><stop
         offset="0.818182"
         stop-color="#BF579E"
         stop-opacity="1"
         id="stop344" /><stop
         offset="0.826446"
         stop-color="#BE569E"
         stop-opacity="1"
         id="stop345" /><stop
         offset="0.834711"
         stop-color="#BD559E"
         stop-opacity="1"
         id="stop346" /><stop
         offset="0.842975"
         stop-color="#BC549F"
         stop-opacity="1"
         id="stop347" /><stop
         offset="0.85124"
         stop-color="#BA549F"
         stop-opacity="1"
         id="stop348" /><stop
         offset="0.859504"
         stop-color="#B9539F"
         stop-opacity="1"
         id="stop349" /><stop
         offset="0.867769"
         stop-color="#B852A0"
         stop-opacity="1"
         id="stop350" /><stop
         offset="0.876033"
         stop-color="#B751A0"
         stop-opacity="1"
         id="stop351" /><stop
         offset="0.884298"
         stop-color="#B550A0"
         stop-opacity="1"
         id="stop352" /><stop
         offset="0.892562"
         stop-color="#B450A1"
         stop-opacity="1"
         id="stop353" /><stop
         offset="0.900826"
         stop-color="#B34FA1"
         stop-opacity="1"
         id="stop354" /><stop
         offset="0.909091"
         stop-color="#B24EA1"
         stop-opacity="1"
         id="stop355" /><stop
         offset="0.917355"
         stop-color="#B04DA1"
         stop-opacity="1"
         id="stop356" /><stop
         offset="0.92562"
         stop-color="#AF4CA2"
         stop-opacity="1"
         id="stop357" /><stop
         offset="0.933884"
         stop-color="#AE4BA2"
         stop-opacity="1"
         id="stop358" /><stop
         offset="0.942149"
         stop-color="#AC4BA2"
         stop-opacity="1"
         id="stop359" /><stop
         offset="0.950413"
         stop-color="#AB4AA2"
         stop-opacity="1"
         id="stop360" /><stop
         offset="0.958678"
         stop-color="#A949A2"
         stop-opacity="1"
         id="stop361" /><stop
         offset="0.966942"
         stop-color="#A848A2"
         stop-opacity="1"
         id="stop362" /><stop
         offset="0.975207"
         stop-color="#A747A2"
         stop-opacity="1"
         id="stop363" /><stop
         offset="0.983471"
         stop-color="#A546A2"
         stop-opacity="1"
         id="stop364" /><stop
         offset="0.991736"
         stop-color="#A445A2"
         stop-opacity="1"
         id="stop365" /><stop
         offset="1"
         stop-color="#A345A3"
         stop-opacity="1"
         id="stop366" /></linearGradient><linearGradient
       inkscape:collect="always"
       xlink:href="#linearGradient366"
       id="linearGradient123"
       x1="1.4997563"
       y1="550.5011"
       x2="1922.5022"
       y2="550.5011"
       gradientUnits="userSpaceOnUse"
       spreadMethod="pad" /><linearGradient
       inkscape:collect="always"
       xlink:href="#linearGradient366"
       id="linearGradient141"
       gradientUnits="userSpaceOnUse"
       x1="-328.33282"
       y1="3.2723675"
       x2="862.68732"
       y2="711.74274"
       spreadMethod="pad" /></defs><g
     inkscape:label="Livello 1"
     inkscape:groupmode="layer"
     id="layer1"><g
       style="overflow:hidden;fill:#000000;fill-opacity:1;stroke:url(#linearGradient123);stroke-width:4.37579;stroke-dasharray:none;paint-order:markers stroke fill"
       id="g8"
       transform="matrix(0.23023491,0,0,0.24393431,97.067914,129.79624)"><g
         id="g141"
         style="fill:#000000;fill-opacity:1;stroke:url(#linearGradient141)"><path
           id="path122-9"
           style="overflow:hidden;fill:#000000;fill-opacity:1;stroke:none;stroke-width:16.8787;stroke-linejoin:round;stroke-dasharray:none;stroke-opacity:1;paint-order:stroke markers fill"
           d="m 512.61698,-301.04343 c -64.17641,-1.58472 -129.65689,12.25798 -190.8304,43.3288 -132.46039,67.27872 -216.08986,202.290389 -216.82854,350.041103 v 4.391561 C 87.598605,93.90008 70.024742,92.480178 52.432036,92.470528 -131.26092,92.258218 -280.35172,239.97063 -280.56556,422.39477 c -0.0583,48.5229 7.70744,98.11753 31.37599,140.41556 24.87116,44.44721 56.33344,79.51809 110.52528,108.89046 l 21.61636,-37.8806 c -71.78998,-41.52363 -117.5827,-97.84662 -119.11675,-223.44131 2.50768,-57.81637 22.64581,-113.51969 57.75346,-159.71682 h 0.009 c 55.2177,-71.22098 140.305531,-113.33605 230.825308,-114.23355 15.19193,0.01 30.365499,1.23511 45.372749,3.66705 l 51.417213,8.34884 V 92.315881 c 1.19553,-194.100321 160.61949,-350.477441 356.07339,-349.282701 132.05216,0.80582 252.66458,74.55374 312.84864,191.281829 l 17.57226,33.999115 36.35207,-12.556094 c 149.35309,-53.025849 313.70509,24.219367 367.10509,172.5356 10.8968,30.24801 19.1767,53.94841 22.337,82.01869 3.7195,33.03689 5.5575,67.67093 -4.2088,99.58947 -12.456,40.70967 -37.8301,78.11917 -67.2036,110.16415 -55.1276,60.14149 -198.63602,147.54545 -198.63602,147.54545 l 19.81782,29.49013 c 0,0 149.3189,-92.42207 209.2905,-153.71743 29.4651,-30.11547 57.1831,-68.66062 71.5938,-102.74774 16.9274,-40.04005 18.0153,-76.56666 12.1891,-127.26904 -3.4632,-30.13836 -14.8442,-87.46664 -35.3837,-126.550631 C 1242.9169,37.258986 1209.175,-11.015645 1160.7549,-43.99411 1071.68,-104.66224 959.48683,-120.99516 857.51724,-85.755251 788.68317,-219.40291 653.80506,-297.55705 512.61698,-301.04343 Z"
           sodipodi:nodetypes="scccccaccccccccccccccaaaccassascs" /></g></g><path
       d="m 134.35586,408.53132 c 5.15147,0.29425 20.18518,0.42844 20.18518,0.42844 h 275.38641 c 33.89408,-0.14124 61.26266,-29.16498 61.12839,-64.82727 -0.13202,-35.25503 -27.11571,-63.88091 -60.62042,-64.31171 h -5.09551 c -0.047,-25.98223 -11.99922,-50.34389 -32.10382,-65.43133 -20.36644,-14.99352 -46.33862,-18.78315 -69.81563,-10.18691 -23.05168,-47.42009 -78.27441,-66.20065 -123.34418,-41.94704 -30.49707,16.41162 -49.75131,49.34551 -49.92138,85.38705 v 1.07112 c -3.99675,-0.6874 -8.04274,-1.03345 -12.0932,-1.03581 -42.292684,-0.0518 -76.618657,35.9801 -76.66789,80.4797 -0.01342,11.83642 2.452658,23.5316 7.223701,34.25218 12.37964,26.74495 37.512649,44.37954 65.738349,46.12158 z M 84.915581,286.26631 c 12.713065,-17.37328 32.303029,-27.64658 53.143879,-27.86551 3.49772,0.002 6.99096,0.30132 10.44616,0.89456 l 11.83809,2.0363 V 247.6402 c 0.27526,-47.34783 36.98004,-85.4937 81.98045,-85.20226 30.40307,0.19657 58.17217,18.18615 72.02867,46.66019 l 4.04593,8.29374 8.36948,-3.06292 c 34.38639,-12.93486 72.22577,5.90785 84.52036,42.08734 2.55338,7.50959 3.85803,15.42643 3.86026,23.40449 v 10.72293 h 15.28656 c 28.26373,0.43551 50.83891,24.89699 50.42267,54.634 -0.40952,29.32977 -23.05407,52.92022 -50.93064,53.05912 H 143.99193 l -9.08332,-0.41433 c -36.530294,-1.65729 -64.867845,-34.15802 -63.292416,-72.5958 0.57736,-14.10343 5.21413,-27.69131 13.297149,-38.96039 z"
       fill="url(#fill0)"
       fill-rule="evenodd"
       id="path122"
       style="overflow:hidden;fill:#000000;fill-opacity:1;stroke:none;stroke-width:6;stroke-dasharray:none;stroke-opacity:1;paint-order:stroke markers fill" /><path
       d="m 221.23341,203.95489 -22.42998,12.60946 -1.27607,106.49708 -48.59959,27.31878 c -9.71951,5.46395 -18.9939,17.97303 -13.84113,26.01896 4.98121,7.77735 21.29902,6.26475 31.0186,0.80064 l 48.59961,-27.31877 100.90501,49.05655 22.42978,-12.60886 -85.95102,-57.46266 54.3307,-30.54136 38.86006,14.6312 14.95402,-8.40609 -40.72027,-31.82324 -10.81225,-48.63538 -14.95401,8.40608 -4.50481,39.00725 -54.33072,30.54135 z m 74.02388,68.95648 4.1899,-36.32327 5.32182,-2.99067 8.84119,39.73608 0.52874,2.41307 2.02516,1.57279 33.26596,26.00755 -5.31617,2.98816 -36.18416,-13.62844 -2.6759,-1.00275 -64.66606,36.35186 8.58757,5.75033 77.36351,51.71213 -11.78549,6.62551 -97.95679,-47.62844 -2.94815,-1.42832 -51.17908,28.76897 c -8.82397,4.96124 -20.71001,4.71079 -22.59866,1.76101 -2.15375,-3.36309 3.63617,-12.98721 12.293,-17.85247 l 51.17928,-28.76957 0.0413,-3.10602 1.23471,-103.39106 11.78497,-6.62413 12.31037,88.29848 1.36411,9.78926 64.66813,-36.35122 z"
       fill="#262f3f"
       fill-rule="evenodd"
       fill-opacity="1"
       id="path1"
       style="overflow:hidden;fill:#000000;fill-opacity:1;stroke:none;stroke-width:5.10268;stroke-linejoin:round;stroke-dasharray:none;stroke-opacity:1;paint-order:markers stroke fill" /><path
       id="path2"
       style="fill:#000000;fill-opacity:1;stroke:none;stroke-width:0.322677;stroke-opacity:1"
       d="m 193.05901,433.688 c -1.09415,0.0212 -2.1835,0.2668 -3.40445,0.44714 -4.22349,1.16965 -6.44828,4.01619 -7.42497,7.68197 -2.93556,11.01779 -5.72164,22.07084 -8.54358,33.11545 -0.3596,1.4074 0.0931,1.90562 1.6484,1.93122 1.65816,0.0276 3.32245,-0.0803 4.97441,0.0177 1.38956,0.0824 1.93,-0.43659 2.21387,-1.69601 0.78944,-3.50251 1.72744,-6.97515 2.60685,-10.45968 h 16.74801 c 0.90733,3.58732 1.8336,7.1206 2.67882,10.67098 0.2496,1.04847 0.75949,1.5137 1.91817,1.47612 1.71194,-0.0559 3.42781,9.2e-4 5.14171,-0.0119 1.82304,-0.0141 2.20832,-0.5136 1.76838,-2.24786 -1.02862,-4.05484 -2.02786,-8.11701 -3.09644,-12.16243 -1.85649,-7.02816 -3.57795,-14.09408 -5.69551,-21.05226 -1.66715,-5.47818 -5.49048,-7.82811 -11.53367,-7.71077 z m 91.6598,0.10229 c -2.11643,0.0255 -4.22697,0.13593 -6.31284,0.33625 -6.89723,0.66239 -10.78894,5.043 -10.96821,11.53095 -0.18903,6.84062 -0.12735,13.69208 0.0285,20.53469 0.0877,3.8468 1.75783,7.07664 5.43158,9.2904 h 6.4e-4 c 1.86036,0.64756 3.59884,1.64143 5.38813,1.73031 5.17986,0.25719 10.4321,0.6052 15.56002,0.0809 7.69882,-0.7872 11.38606,-5.04315 11.47465,-12.35659 0.0797,-6.58336 0.1034,-13.17324 -0.10829,-19.75254 -0.18723,-5.81933 -3.84356,-10.12623 -9.95335,-10.83881 -3.47046,-0.40476 -7.01347,-0.59797 -10.54087,-0.55553 z m 62.49556,0.0717 c -4.2674,0.18199 -7.5909,2.9606 -8.6428,7.63237 -1.29836,5.76639 -2.5033,11.55188 -3.80392,17.31782 -0.10352,0.45876 -0.63357,0.83121 -0.96557,1.24399 -0.2922,-0.3934 -0.60722,-0.77352 -0.8657,-1.18579 -0.10554,-0.16825 -0.0831,-0.40641 -0.1284,-0.61068 -1.31288,-5.9205 -2.56531,-11.85353 -3.96474,-17.75577 -0.79122,-3.33716 -3.01687,-5.53061 -6.61114,-6.29834 -6.68116,-1.42708 -12.20786,2.40754 -12.35074,8.99886 -0.23215,10.70873 -0.0843,21.42503 -0.11344,32.13791 -0.004,1.16864 0.59754,1.55146 1.7567,1.52574 1.88011,-0.0417 3.76182,-0.0105 5.79083,-0.0195 v -6.1e-4 c 0.46833,-0.75866 1.06301,-1.50546 1.06803,-2.25585 0.0659,-10.03367 0.0482,-20.0679 0.0557,-30.10195 3.7e-4,-0.57423 -0.0896,-1.18525 0.0888,-1.71071 0.14426,-0.42488 0.6265,-1.03953 0.96493,-1.04309 0.4644,-0.005 1.02207,0.41545 1.37346,0.79197 0.26102,0.27966 0.27513,0.77628 0.36962,1.18212 1.4118,6.06087 2.75183,12.13718 4.2546,18.17779 0.73879,2.96967 2.5428,5.19616 5.89783,5.93636 5.61476,1.23877 9.72257,-1.13555 11.01295,-6.51456 1.42786,-5.95211 2.70603,-11.93596 4.07175,-17.90155 0.19468,-0.85041 0.33484,-1.8873 1.66267,-1.74196 1.23586,0.13527 1.13011,1.14226 1.16011,1.94654 0.0563,1.5138 0.0276,3.03044 0.0279,4.54597 0.003,8.93659 0.0264,17.87337 -0.0168,26.80976 -0.006,1.42708 0.5155,1.99386 2.03554,1.91469 1.59959,-0.0827 3.21038,-0.067 4.81164,0.002 1.2972,0.0563 1.81109,-0.47202 1.80858,-1.65131 -0.0167,-10.50436 0.0666,-21.00966 -0.0694,-31.51254 -0.0532,-4.10805 -1.64796,-7.60899 -6.14619,-9.15014 -1.58312,-0.54239 -3.11033,-0.77055 -4.53279,-0.70988 z m -222.00532,0.42322 c -2.84827,-0.007 -5.69665,-0.005 -8.54358,0.0497 -8.12726,0.15623 -13.39097,5.02022 -13.61136,12.66957 -0.16537,5.74138 -0.16652,11.49357 -0.009,17.23516 0.20391,7.40547 5.35357,12.31767 13.21192,12.56238 5.91107,0.1841 11.83393,0.0412 17.75118,0.0595 1.10868,0.003 1.62599,-0.46274 1.61469,-1.51226 -0.0156,-1.46238 -0.0693,-2.92929 0.0299,-4.38613 0.0976,-1.43332 -0.48218,-1.94799 -2.00313,-1.92998 -5.03176,0.0596 -10.06576,0.0702 -15.097,-0.006 -1.29266,-0.0195 -2.57893,-0.42877 -3.97511,-0.72398 -1.78649,-0.99769 -2.60096,-2.47148 -2.62631,-4.2238 -0.0802,-5.53315 -0.19543,-11.07213 -0.0182,-16.60061 0.1182,-3.68667 2.30161,-5.38749 6.25189,-5.40041 5.08779,-0.0165 10.17516,9.2e-4 15.26302,-9.2e-4 1.97852,-7.2e-4 2.1485,-0.17023 2.15226,-2.08923 0.003,-1.30585 -0.0524,-2.61346 0.0137,-3.91632 0.0653,-1.28909 -0.52654,-1.78276 -1.8611,-1.77564 -2.848,0.0148 -5.69597,-0.002 -8.54423,-0.0105 z m 111.35964,0.008 c -2.98665,-0.007 -5.973,-9.2e-4 -8.95794,0.0625 -6.76906,0.14502 -10.8046,3.13701 -12.36113,8.98783 l 6.5e-4,-6.2e-4 c -0.0732,0.38895 -0.13688,0.64351 -0.17704,0.9016 -1.0835,6.95505 1.83424,12.08117 8.10911,13.9497 1.65912,0.49404 3.46246,0.66644 5.21239,0.75154 2.64798,0.12884 5.31004,-0.0197 7.96061,0.0809 2.95333,0.11195 4.70102,1.82477 4.85379,4.55272 0.21399,3.8216 -1.45225,5.4846 -5.55932,5.4929 -5.97285,0.012 -11.94581,0.0178 -17.9185,-0.0165 -1.31832,-0.007 -1.95423,0.41983 -1.90065,1.7297 0.0617,1.51265 0.0434,3.02996 0.01,4.54415 -0.0232,1.06281 0.49666,1.52994 1.59329,1.52757 6.85749,-0.0159 13.7225,0.15575 20.57073,-0.0882 6.89997,-0.24584 10.95106,-3.77989 11.98501,-9.98866 0.22964,-1.37888 0.19657,-2.81658 0.11407,-4.2183 -0.36659,-6.22802 -4.32883,-10.36787 -10.89234,-11.04828 -3.44785,-0.35737 -6.95444,-0.19108 -10.43256,-0.31115 -3.63094,-0.12535 -5.32659,-2.00544 -4.94458,-5.39551 0.27312,-2.42383 1.93713,-3.69394 5.01331,-3.71053 5.53028,-0.0294 11.06096,-0.0367 16.59108,0.003 1.34452,0.009 1.94252,-0.46616 1.91429,-1.73461 -0.033,-1.46186 -0.0207,-2.92508 0.001,-4.38734 0.0178,-1.18858 -0.56752,-1.67866 -1.82609,-1.67274 -2.98636,0.0148 -5.97325,-0.005 -8.95989,-0.0122 z m 19.56821,0 c -1.58254,-0.0783 -2.15011,0.52159 -2.12828,2.0188 0.0686,4.70206 0.0241,9.40536 0.0266,14.10834 0.004,8.15177 0.0358,16.30376 -0.01,24.45529 -0.009,1.48478 0.51168,2.10222 2.1166,2.01392 1.654,-0.091 3.31843,-0.024 5.13004,-0.0263 1.25935,-0.0186 1.51892,-0.67939 1.51871,-1.57166 -0.003,-13.11605 -0.005,-26.23224 0.01,-39.34826 0.001,-1.12421 -0.49851,-1.6292 -1.68537,-1.6164 -1.65937,0.018 -3.32271,0.0483 -4.9783,-0.0336 z m -99.78447,0.0122 c -1.507,0.003 -3.01367,0.0119 -4.52049,0.0294 -7.1793,0.0855 -12.02969,3.64855 -12.57835,10.3727 -0.60532,7.41833 -0.57152,14.93742 -0.0596,22.36607 0.42253,6.13218 5.21972,9.68369 11.84754,9.76939 6.35886,0.0823 12.72009,-6.1e-4 19.07989,0.0361 1.3153,0.007 1.78947,-0.53478 1.7606,-1.69665 -0.0324,-1.30526 -0.0113,-2.61162 -0.0162,-3.91754 -0.009,-2.11099 -0.094,-2.19589 -2.35006,-2.19827 -5.7517,-0.005 -11.50351,0.0105 -17.25511,-0.0135 -2.5373,-0.0105 -4.19612,-1.24023 -4.34864,-3.41224 -0.15234,-2.16931 -0.033,-4.35513 -0.033,-6.664 0.62635,0 1.16421,5e-5 1.70223,0 6.02825,-6e-4 12.05657,-0.0257 18.08451,0.0147 1.49911,0.009 2.12888,-0.53629 2.04656,-1.95328 -0.0696,-1.19783 -0.003,-2.40204 -0.0168,-3.60333 -0.0222,-1.92023 -0.28317,-2.17515 -2.30013,-2.17989 -5.9176,-0.0127 -11.8355,-0.0119 -17.75313,-0.0165 -0.5828,-3.8e-4 -1.16576,0 -1.81247,0 0,-1.45868 -0.0188,-2.70707 0.004,-3.95491 0.0675,-3.71045 1.67464,-5.20143 5.60084,-5.2038 5.47517,-0.002 10.95129,-0.0348 16.42572,0.0263 1.51813,0.0169 2.17595,-0.49441 2.01155,-2.05617 l -6.6e-4,6e-4 c -0.003,-1.39314 -0.0673,-2.65045 0.009,-3.89978 0.0834,-1.37806 -0.56291,-1.8489 -1.96292,-1.84179 -4.52102,0.024 -9.04303,-0.0136 -13.56402,-0.003 z m 37.11836,7.13807 c 1.09414,-0.0141 1.99791,0.41031 2.58933,1.41487 1.42238,4.81633 2.71603,9.42888 4.03478,14.131 h -13.02579 c 1.14536,-4.46232 2.22732,-8.8053 3.39084,-13.12894 0.32401,-1.20399 1.06617,-2.20972 2.53098,-2.38447 0.16373,-0.0195 0.32356,-0.0305 0.47986,-0.0325 z m 92.97943,0.22846 c 1.54734,-0.003 3.0948,4.1e-4 4.64175,0.0215 3.3967,0.0461 5.34869,1.70436 5.4024,4.8651 0.1024,6.05298 0.11055,12.10971 10e-4,18.16248 -0.0587,3.24981 -2.10091,4.92805 -5.52755,4.9245 -1.60233,-9.2e-4 -3.20477,-0.008 -4.80709,-0.0129 h -6.6e-4 c -1.76805,0.003 -3.20537,0.0233 -4.64174,0.009 -3.20702,-0.0303 -5.29107,-1.74466 -5.34792,-4.78792 -0.11306,-6.05247 -0.13228,-12.1106 0.0149,-18.16186 0.0828,-3.4027 2.04538,-4.97907 5.62287,-4.99862 1.54723,-0.008 3.09441,-0.0187 4.64174,-0.022 z m 86.16793,3.83242 c -2.84888,0.0141 -5.70139,0.0776 -8.54813,0.0747 -1.28518,-9.2e-4 -1.44586,0.8468 -1.43959,1.83994 0.0242,4.22975 0.0149,8.45994 0.0162,12.6898 0.003,9.08634 0.0301,18.1726 -0.0176,27.25871 -0.008,1.49164 0.52822,2.11293 2.11855,2.01942 1.32182,-0.0776 2.65277,-0.0165 3.97965,-0.0178 2.15468,-0.002 2.24958,-0.0896 2.25084,-2.12048 0.003,-3.42866 6.5e-4,-6.85701 6.5e-4,-10.39658 2.83494,0 5.48009,0.0449 8.12272,-0.008 8.25577,-0.16706 13.19666,-4.69935 13.52901,-12.47175 0.10478,-2.44813 -0.0329,-4.90544 -0.072,-7.49884 -1.03117,-6.88129 -4.65245,-10.67139 -11.41435,-11.14812 -2.83196,-0.19966 -5.67719,-0.23466 -8.52607,-0.22049 z m 30.1162,0.03 c -0.16651,-0.008 -0.3478,-0.006 -0.54407,0.006 -1.54227,0.093 -3.09552,0.0376 -4.64369,0.0257 -1.09325,-0.008 -1.61326,0.44097 -1.60949,1.51104 0.0197,5.79741 -0.14021,11.59941 0.0506,17.39134 0.2329,7.07111 4.43484,11.30465 11.87866,12.18385 2.18209,0.25774 4.41288,0.14918 6.62151,0.20274 0.5215,0.013 1.04354,0.002 1.56541,0.002 -0.054,4.25105 -1.10348,5.25832 -5.28826,5.273 -3.31784,0.0119 -6.63609,0.007 -10.10639,0.009 l -6.5e-4,-6e-4 c -2.8687,0.008 -2.86965,0.008 -2.87467,2.62089 -0.003,0.99238 0.0241,1.9854 -0.01,2.97674 -0.0385,1.10774 0.45696,1.64004 1.66332,1.63293 4.81058,-0.0268 9.62751,0.10939 14.43103,-0.071 6.36442,-0.23908 10.4287,-4.05001 10.52595,-10.10259 0.17204,-10.70482 0.0702,-21.41311 0.0966,-32.12014 0.003,-1.04775 -0.46535,-1.53747 -1.59006,-1.51839 -1.54781,0.0258 -3.09667,9.1e-4 -4.64498,0.006 -2.00124,0.007 -2.13999,0.13968 -2.14125,2.07394 -0.004,6.78993 -0.003,13.57936 -0.009,20.36932 -3.8e-4,0.45276 -0.0418,0.90546 -0.0661,1.402 -2.27661,0 -4.4332,0.0811 -6.58002,-0.022 -2.25998,-0.10858 -3.90467,-1.24305 -4.53538,-3.30567 -0.40764,-1.33308 -0.58947,-2.76736 -0.60892,-4.15948 -0.0674,-4.8043 -0.0699,-9.6107 0.0149,-14.4146 0.0237,-1.3467 -0.42969,-1.91524 -1.59523,-1.97286 z m -31.64853,7.1877 h 5.37191 c 6.01767,0.0119 7.77653,1.66557 7.77904,7.1289 9.5e-4,1.76684 -0.0176,3.55733 -0.30867,5.29506 -0.45264,2.70262 -2.38137,4.1578 -5.27206,4.27218 -0.44136,0.0176 -0.88351,0.0137 -1.32547,0.0141 -2.04349,9.1e-4 -4.08733,6.2e-4 -6.24475,6.2e-4 z" /></g></svg>
