<?xml version="1.0" encoding="UTF-8" standalone="no"?>
<!-- Created with Inkscape (http://www.inkscape.org/) -->

<svg
   xmlns:osb="http://www.openswatchbook.org/uri/2009/osb"
   xmlns:dc="http://purl.org/dc/elements/1.1/"
   xmlns:cc="http://creativecommons.org/ns#"
   xmlns:rdf="http://www.w3.org/1999/02/22-rdf-syntax-ns#"
   xmlns:svg="http://www.w3.org/2000/svg"
   xmlns="http://www.w3.org/2000/svg"
   xmlns:sodipodi="http://sodipodi.sourceforge.net/DTD/sodipodi-0.dtd"
   xmlns:inkscape="http://www.inkscape.org/namespaces/inkscape"
   width="1500"
   height="1200"
   viewBox="0 0 396.87499 317.50001"
   version="1.1"
   id="svg8"
   inkscape:version="0.92.2 (5c3e80d, 2017-08-06)"
   sodipodi:docname="aircraft_with_axes_coef.svg"
   inkscape:export-filename="/home/jungo/Documents/CEASIOMpyDocumentation/test2.png"
   inkscape:export-xdpi="96"
   inkscape:export-ydpi="96">
  <defs
     id="defs2">
    <marker
       inkscape:stockid="Arrow1Lend"
       orient="auto"
       refY="0"
       refX="0"
       id="marker16462"
       style="overflow:visible"
       inkscape:isstock="true">
      <path
         id="path16460"
         d="M 0,0 5,-5 -12.5,0 5,5 Z"
         style="fill:#000000;fill-opacity:1;fill-rule:evenodd;stroke:#000000;stroke-width:1.00000003pt;stroke-opacity:1"
         transform="matrix(-0.8,0,0,-0.8,-10,0)"
         inkscape:connector-curvature="0" />
    </marker>
    <linearGradient
       id="linearGradient15522"
       osb:paint="solid">
      <stop
         style="stop-color:#000000;stop-opacity:1;"
         offset="0"
         id="stop15520" />
    </linearGradient>
    <marker
       inkscape:isstock="true"
       style="overflow:visible"
       id="marker11778"
       refX="0"
       refY="0"
       orient="auto"
       inkscape:stockid="Arrow1Lend">
      <path
         transform="matrix(-0.8,0,0,-0.8,-10,0)"
         style="fill:#000000;fill-opacity:1;fill-rule:evenodd;stroke:#000000;stroke-width:1.00000003pt;stroke-opacity:1"
         d="M 0,0 5,-5 -12.5,0 5,5 Z"
         id="path11776"
         inkscape:connector-curvature="0" />
    </marker>
    <linearGradient
       id="linearGradient11700"
       osb:paint="solid">
      <stop
         style="stop-color:#000000;stop-opacity:1;"
         offset="0"
         id="stop11698" />
    </linearGradient>
    <marker
       inkscape:stockid="Arrow1Lend"
       orient="auto"
       refY="0"
       refX="0"
       id="marker11586"
       style="overflow:visible"
       inkscape:isstock="true"
       inkscape:collect="always">
      <path
         id="path11584"
         d="M 0,0 5,-5 -12.5,0 5,5 Z"
         style="fill:#000000;fill-opacity:1;fill-rule:evenodd;stroke:#000000;stroke-width:1.00000003pt;stroke-opacity:1"
         transform="matrix(-0.8,0,0,-0.8,-10,0)"
         inkscape:connector-curvature="0" />
    </marker>
    <marker
       inkscape:isstock="true"
       style="overflow:visible"
       id="marker10934"
       refX="0"
       refY="0"
       orient="auto"
       inkscape:stockid="Arrow1Lend"
       inkscape:collect="always">
      <path
         transform="matrix(-0.8,0,0,-0.8,-10,0)"
         style="fill:#000000;fill-opacity:1;fill-rule:evenodd;stroke:#000000;stroke-width:1.00000003pt;stroke-opacity:1"
         d="M 0,0 5,-5 -12.5,0 5,5 Z"
         id="path10932"
         inkscape:connector-curvature="0" />
    </marker>
    <marker
       inkscape:stockid="Arrow1Lstart"
       orient="auto"
       refY="0"
       refX="0"
       id="marker10888"
       style="overflow:visible"
       inkscape:isstock="true">
      <path
         id="path10886"
         d="M 0,0 5,-5 -12.5,0 5,5 Z"
         style="fill:#000000;fill-opacity:1;fill-rule:evenodd;stroke:#000000;stroke-width:1.00000003pt;stroke-opacity:1"
         transform="matrix(0.8,0,0,0.8,10,0)"
         inkscape:connector-curvature="0" />
    </marker>
    <marker
       inkscape:stockid="Arrow1Lend"
       orient="auto"
       refY="0"
       refX="0"
       id="Arrow1Lend"
       style="overflow:visible"
       inkscape:isstock="true"
       inkscape:collect="always">
      <path
         id="path8765"
         d="M 0,0 5,-5 -12.5,0 5,5 Z"
         style="fill:#000000;fill-opacity:1;fill-rule:evenodd;stroke:#000000;stroke-width:1.00000003pt;stroke-opacity:1"
         transform="matrix(-0.8,0,0,-0.8,-10,0)"
         inkscape:connector-curvature="0" />
    </marker>
    <marker
       inkscape:stockid="Arrow1Lstart"
       orient="auto"
       refY="0"
       refX="0"
       id="Arrow1Lstart"
       style="overflow:visible"
       inkscape:isstock="true">
      <path
         id="path8762"
         d="M 0,0 5,-5 -12.5,0 5,5 Z"
         style="fill:#000000;fill-opacity:1;fill-rule:evenodd;stroke:#000000;stroke-width:1.00000003pt;stroke-opacity:1"
         transform="matrix(0.8,0,0,0.8,10,0)"
         inkscape:connector-curvature="0" />
    </marker>
    <meshgradient
       inkscape:collect="always"
       id="meshgradient9392"
       gradientUnits="userSpaceOnUse"
       x="189.84151"
       y="145.0743">
      <meshrow
         id="meshrow10726">
        <meshpatch
           id="meshpatch10728">
          <stop
             path="c 19.9067,0  113.899,-70.6834  133.804,-70.6815"
             style="stop-color:#ffffff;stop-opacity:1"
             id="stop10730" />
          <stop
             path="c 0.00731209,12.7882  -74.0759,96.2584  -74.0759,109.047"
             style="stop-color:#800080;stop-opacity:1"
             id="stop10732" />
          <stop
             path="c -19.9067,0  -39.8135,0  -59.7202,0"
             style="stop-color:#ffffff;stop-opacity:1"
             id="stop10734" />
          <stop
             path="c 0,-12.7882  0,-25.5764  -0.0074,-38.3655"
             style="stop-color:#800080;stop-opacity:1"
             id="stop10736" />
        </meshpatch>
      </meshrow>
    </meshgradient>
    <marker
       inkscape:stockid="Arrow1Lend"
       orient="auto"
       refY="0"
       refX="0"
       id="marker16462-8"
       style="overflow:visible"
       inkscape:isstock="true">
      <path
         inkscape:connector-curvature="0"
         id="path16460-4"
         d="M 0,0 5,-5 -12.5,0 5,5 Z"
         style="fill:#000000;fill-opacity:1;fill-rule:evenodd;stroke:#000000;stroke-width:1.00000003pt;stroke-opacity:1"
         transform="matrix(-0.8,0,0,-0.8,-10,0)" />
    </marker>
    <marker
       inkscape:stockid="Arrow1Lend"
       orient="auto"
       refY="0"
       refX="0"
       id="marker16462-1"
       style="overflow:visible"
       inkscape:isstock="true">
      <path
         inkscape:connector-curvature="0"
         id="path16460-5"
         d="M 0,0 5,-5 -12.5,0 5,5 Z"
         style="fill:#000000;fill-opacity:1;fill-rule:evenodd;stroke:#000000;stroke-width:1.00000003pt;stroke-opacity:1"
         transform="matrix(-0.8,0,0,-0.8,-10,0)" />
    </marker>
    <marker
       inkscape:stockid="Arrow1Lend"
       orient="auto"
       refY="0"
       refX="0"
       id="marker16462-7"
       style="overflow:visible"
       inkscape:isstock="true">
      <path
         inkscape:connector-curvature="0"
         id="path16460-7"
         d="M 0,0 5,-5 -12.5,0 5,5 Z"
         style="fill:#000000;fill-opacity:1;fill-rule:evenodd;stroke:#000000;stroke-width:1.00000003pt;stroke-opacity:1"
         transform="matrix(-0.8,0,0,-0.8,-10,0)" />
    </marker>
  </defs>
  <sodipodi:namedview
     id="base"
     pagecolor="#ffffff"
     bordercolor="#666666"
     borderopacity="1.0"
     inkscape:pageopacity="0.0"
     inkscape:pageshadow="2"
     inkscape:zoom="0.64"
     inkscape:cx="735.35156"
     inkscape:cy="700.11936"
     inkscape:document-units="mm"
     inkscape:current-layer="layer1"
     showgrid="false"
     showguides="true"
     inkscape:guide-bbox="true"
     inkscape:window-width="1920"
     inkscape:window-height="1025"
     inkscape:window-x="0"
     inkscape:window-y="-3"
     inkscape:window-maximized="1"
     inkscape:snap-bbox="false"
     inkscape:snap-global="false"
     units="px">
    <sodipodi:guide
       position="291.32378,475.20523"
       orientation="0,1"
       id="guide186"
       inkscape:locked="false" />
  </sodipodi:namedview>
  <metadata
     id="metadata5">
    <rdf:RDF>
      <cc:Work
         rdf:about="">
        <dc:format>image/svg+xml</dc:format>
        <dc:type
           rdf:resource="http://purl.org/dc/dcmitype/StillImage" />
        <dc:title></dc:title>
      </cc:Work>
    </rdf:RDF>
  </metadata>
  <g
     inkscape:label="Layer 1"
     inkscape:groupmode="layer"
     id="layer1"
     transform="translate(0,20.500017)">
    <path
       style="opacity:0.93999999;fill:none;fill-opacity:1;stroke:#000000;stroke-width:0.76499999;stroke-linecap:butt;stroke-linejoin:miter;stroke-miterlimit:4;stroke-dasharray:none;stroke-opacity:1"
       d="M 165.42998,142.46083 96.127482,96.427003 55.769792,64.087391 c 0,0 -1.33633,-2.405426 7.75081,-6.147199 9.08717,-3.741773 9.35445,-3.741773 9.35445,-3.741773 l 53.453908,27.52876 72.69731,41.694051 c 0,0 7.21627,-4.54359 29.39966,-14.43256 L 250.60929,99.0997 234.84038,78.252676 c 0,0 -1.36975,0.200452 6.1138,-4.07586 7.48354,-4.276313 6.38105,-3.407687 6.38105,-3.407687 l 18.27456,10.456922 7.34991,-16.336851 14.03165,-7.249686 -7.51695,29.433056 3.64186,-1.355315 c 0,0 2.59859,-0.897694 4.06324,0.425222 1.46466,1.322917 2.59859,2.55134 2.59859,2.55134 0,0 0.75595,0.755952 0.51972,2.362351 -0.23624,1.606399 -1.65365,3.82701 -1.65365,3.82701 l 26.50558,15.544272 c 0,0 -2.51333,4.18525 -8.57533,6.85081 l -3.33092,1.46466 -32.41146,-8.55171 -40.15997,32.36422 91.56473,53.8616 43.03112,28.96752 c 0,0 -8.23661,7.81116 -15.69365,10.41425 l -0.40934,0.1429 -57.63869,-25.25606 -91.69816,-47.04035 -38.79811,21.62145 -13.0402,6.70908 c 0,0 -6.33108,3.49627 -13.13466,5.38616 -6.80357,1.88988 -4.75373,1.63157 -14.2686,3.40178 l -9.14229,1.70089 c 0,0 -1.0867,0 -3.66166,-0.37797 -2.05526,-1.08669 -3.70888,-3.23642 -3.70888,-3.23642 0,0 -0.6851,-2.43323 -0.30712,-4.03962 0.37799,-1.6064 3.40178,-8.032 4.63022,-9.92188 1.22841,-1.88988 3.1183,-5.57515 5.95313,-9.16592 2.83482,-3.59077 9.83885,-11.07775 10.90693,-12.02466 1.26855,-1.04713 1.60362,-1.74003 7.89737,-5.26775 8.51931,-4.77518 32.27578,-15.9696 32.27578,-15.9696 z"
       id="path142-8"
       inkscape:connector-curvature="0"
       sodipodi:nodetypes="cccccccsccscccccccccccscccccscccccsscccccccsc" />
    <path
       style="fill:none;stroke:#000000;stroke-width:0.76499999;stroke-linecap:butt;stroke-linejoin:miter;stroke-miterlimit:4;stroke-dasharray:none;stroke-opacity:1"
       d="m 303.24349,118.74292 c 3.96875,-5.19717 11.90625,-8.31547 11.90625,-8.31547 v 0 0 0 0 0"
       id="path144-4"
       inkscape:connector-curvature="0"
       sodipodi:nodetypes="ccccccc" />
    <path
       style="fill:none;stroke:#000000;stroke-width:0.76499999;stroke-linecap:butt;stroke-linejoin:miter;stroke-miterlimit:4;stroke-dasharray:none;stroke-opacity:1"
       d="m 349.16492,235.9417 c 0,0 -1.88719,-1.63255 1.51458,-4.0894 3.4018,-2.45684 14.58841,-6.46775 14.58841,-6.46775"
       id="path146-5"
       inkscape:connector-curvature="0"
       sodipodi:nodetypes="ccc" />
    <path
       style="fill:none;stroke:#000000;stroke-width:0.76499999;stroke-linecap:butt;stroke-linejoin:miter;stroke-miterlimit:4;stroke-dasharray:none;stroke-opacity:1"
       d="m 265.60979,81.226051 -13.62932,30.429819 c 0,0 1.08668,0.70871 2.22061,0.37798 1.13393,-0.33073 11.38653,-6.18936 11.38653,-6.18936 l 11.19755,-8.173739 2.68924,-10.598181 v 0 0 0"
       id="path150-7"
       inkscape:connector-curvature="0" />
    <path
       style="fill:none;stroke:#000000;stroke-width:0.76499999;stroke-linecap:butt;stroke-linejoin:miter;stroke-miterlimit:4;stroke-dasharray:none;stroke-opacity:1"
       d="m 270.83203,110.19121 c 5.52653,-9.00574 11.77552,-11.14808 17.81213,-15.308032"
       id="path152-7"
       inkscape:connector-curvature="0"
       sodipodi:nodetypes="cc" />
    <path
       style="fill:none;stroke:#000000;stroke-width:0.76499999;stroke-linecap:butt;stroke-linejoin:miter;stroke-miterlimit:4;stroke-dasharray:none;stroke-opacity:1"
       d="m 250.60929,99.0997 8.55262,-3.875408"
       id="path154-2"
       inkscape:connector-curvature="0" />
    <path
       style="fill:none;stroke:#000000;stroke-width:0.76499999;stroke-linecap:butt;stroke-linejoin:miter;stroke-miterlimit:4;stroke-dasharray:none;stroke-opacity:1"
       d="m 165.42998,142.46083 33.59629,-19.0396 v 0"
       id="path188-6"
       inkscape:connector-curvature="0" />
    <path
       style="fill:none;stroke:#000000;stroke-width:0.76499999;stroke-linecap:butt;stroke-linejoin:miter;stroke-miterlimit:4;stroke-dasharray:none;stroke-opacity:1"
       d="m 199.82807,163.64529 c 0,0 0.22793,-2.947 4.95263,-5.97081 4.72469,-3.02381 25.89136,-15.11905 25.89136,-15.11905"
       id="path192-7"
       inkscape:connector-curvature="0" />
    <path
       style="fill:none;stroke:#000000;stroke-width:0.30000001;stroke-linecap:butt;stroke-linejoin:miter;stroke-miterlimit:4;stroke-dasharray:none;stroke-opacity:1;marker-end:url(#marker11586)"
       d="M 201.08855,143.56848 28.58035,34.878378"
       id="path9322-8-1"
       inkscape:connector-curvature="0"
       sodipodi:nodetypes="cc" />
    <path
       style="fill:none;stroke:#000000;stroke-width:0.30000001;stroke-linecap:butt;stroke-linejoin:miter;stroke-miterlimit:4;stroke-dasharray:none;stroke-opacity:1;marker-end:url(#marker10934)"
       d="m 201.0494,143.63518 0.2452,-87.045637"
       id="path9344-3-4"
       inkscape:connector-curvature="0"
       sodipodi:nodetypes="cc" />
    <path
       style="fill:none;stroke:#000000;stroke-width:0.30000001;stroke-linecap:butt;stroke-linejoin:miter;stroke-miterlimit:4;stroke-dasharray:none;stroke-opacity:1;marker-end:url(#Arrow1Lend)"
       d="M 201.09671,143.50937 336.35333,56.619819"
       id="path9346-3-4"
       inkscape:connector-curvature="0"
       sodipodi:nodetypes="cc" />
    <path
       style="fill:#000000;fill-rule:evenodd;stroke-width:0.76499999;stroke-miterlimit:4;stroke-dasharray:none"
       id="path10818"
       sodipodi:type="arc"
       sodipodi:cx="201.04312"
       sodipodi:cy="143.0018"
       sodipodi:rx="2"
       sodipodi:ry="2"
       sodipodi:start="0"
       sodipodi:end="6.282434"
       d="m 203.04312,143.0018 a 2,2 0 0 1 -1.99962,2 2,2 0 0 1 -2.00038,-1.99925 2,2 0 0 1 1.99887,-2.00075 2,2 0 0 1 2.00113,1.9985 l -2,0.001 z" />
    <flowRoot
       xml:space="preserve"
       id="flowRoot15540"
       style="font-style:normal;font-weight:normal;font-size:40px;line-height:1.25;font-family:sans-serif;letter-spacing:0px;word-spacing:0px;fill:#000000;fill-opacity:1;stroke:none"
       transform="matrix(0.26458333,0,0,0.26458333,0,-99.875017)"><flowRegion
         id="flowRegion15542"><rect
           id="rect15544"
           width="77.339806"
           height="64.357765"
           x="263.50775"
           y="529.10925" /></flowRegion><flowPara
         id="flowPara15546">CoGo</flowPara></flowRoot>    <text
       xml:space="preserve"
       style="font-style:normal;font-weight:normal;font-size:10.58333302px;line-height:1.25;font-family:sans-serif;letter-spacing:0px;word-spacing:0px;fill:#000000;fill-opacity:1;stroke:none;stroke-width:0.26458332"
       x="76.894531"
       y="46.679344"
       id="text15550"><tspan
         sodipodi:role="line"
         id="tspan15548"
         x="76.894531"
         y="56.043114"
         style="stroke-width:0.26458332"></tspan></text>
    <path
       style="fill:none;stroke:#000000;stroke-width:0.25;stroke-linecap:butt;stroke-linejoin:miter;stroke-miterlimit:4;stroke-dasharray:none;stroke-opacity:1;marker-end:url(#marker16462-8)"
       d="m 53.167276,56.189596 c -1.565098,-0.07469 -2.899504,-0.81366 -3.215228,-2.34282 -0.539676,-1.48025 -0.364756,-3.393499 0.294185,-4.88918 0.540642,-1.215001 1.63219,-2.359969 2.827285,-2.684965 1.559448,-0.533843 2.499557,-0.574433 4.095233,-0.05671 0.696354,0.281043 1.291684,0.435278 1.511926,1.167951 l 1.116125,1.105078"
       id="path16417-7"
       inkscape:connector-curvature="0"
       sodipodi:nodetypes="ccccccc" />
    <path
       style="fill:none;stroke:#000000;stroke-width:0.25;stroke-linecap:butt;stroke-linejoin:miter;stroke-miterlimit:4;stroke-dasharray:none;stroke-opacity:1;marker-end:url(#marker16462-1)"
       d="m 198.93825,80.58785 c -1.74885,0.918616 -2.34783,1.339499 -3.06938,2.70903 -0.73286,1.777097 -0.49533,4.074028 0.39948,5.86965 0.73416,1.458658 2.21644,2.833236 3.83931,3.223409 2.11765,0.640895 3.39427,0.689626 5.56111,0.06803 0.94562,-0.337401 2.0726,-0.58093 2.37168,-1.460526 l 1.19708,-1.268338"
       id="path16417-9"
       inkscape:connector-curvature="0"
       sodipodi:nodetypes="ccccccc" />
    <path
       style="fill:none;stroke:#000000;stroke-width:0.25;stroke-linecap:butt;stroke-linejoin:miter;stroke-miterlimit:4;stroke-dasharray:none;stroke-opacity:1;marker-end:url(#marker16462-7)"
       d="m 297.48692,76.32735 c 0.0763,-1.609867 0.83179,-2.98245 2.39501,-3.307211 1.51321,-0.555108 3.46908,-0.375188 4.99807,0.302605 1.24207,0.556118 2.41255,1.678891 2.74479,2.90817 0.54571,1.604061 0.38052,2.622742 -0.1487,4.264066 -0.28731,0.716285 -0.37958,1.342805 -1.12857,1.569345 l -0.98839,1.082216"
       id="path16417-3"
       inkscape:connector-curvature="0"
       sodipodi:nodetypes="ccccccc" />
    <flowRoot
       xml:space="preserve"
       id="flowRoot24606"
       style="font-style:normal;font-weight:normal;font-size:40px;line-height:1.25;font-family:sans-serif;letter-spacing:0px;word-spacing:0px;fill:#000000;fill-opacity:1;stroke:none"
       transform="matrix(0.26458333,0,0,0.26458333,0,-99.875017)"><flowRegion
         id="flowRegion24608"><rect
           id="rect24610"
           width="269.58447"
           height="138.1068"
           x="694.95337"
           y="86.891289" /></flowRegion><flowPara
         id="flowPara24612"></flowPara></flowRoot>    <text
       xml:space="preserve"
       style="font-style:normal;font-variant:normal;font-weight:normal;font-stretch:normal;font-size:6.3499999px;line-height:1.25;font-family:sans-serif;-inkscape-font-specification:'sans-serif, Normal';font-variant-ligatures:normal;font-variant-caps:normal;font-variant-numeric:normal;font-feature-settings:normal;text-align:start;letter-spacing:0px;word-spacing:0px;writing-mode:lr-tb;text-anchor:start;fill:#000000;fill-opacity:1;stroke:none;stroke-width:0.26458332"
       x="204.24422"
       y="55.710522"
       id="text24616"><tspan
         sodipodi:role="line"
         id="tspan24759"
         x="204.24422"
         y="55.710522">z, cl</tspan></text>
    <text
       xml:space="preserve"
       style="font-style:normal;font-variant:normal;font-weight:normal;font-stretch:normal;font-size:6.3499999px;line-height:1.25;font-family:sans-serif;-inkscape-font-specification:'sans-serif, Normal';font-variant-ligatures:normal;font-variant-caps:normal;font-variant-numeric:normal;font-feature-settings:normal;text-align:start;letter-spacing:0px;word-spacing:0px;writing-mode:lr-tb;text-anchor:start;fill:#000000;fill-opacity:1;stroke:none;stroke-width:0.26458332"
       x="179.14865"
       y="79.689262"
       id="text24616-0"><tspan
         sodipodi:role="line"
         id="tspan24761"
         x="179.14865"
         y="79.689262">r, cml</tspan></text>
    <text
       xml:space="preserve"
       style="font-style:normal;font-variant:normal;font-weight:normal;font-stretch:normal;font-size:6.3499999px;line-height:1.25;font-family:sans-serif;-inkscape-font-specification:'sans-serif, Normal';font-variant-ligatures:normal;font-variant-caps:normal;font-variant-numeric:normal;font-feature-settings:normal;text-align:start;letter-spacing:0px;word-spacing:0px;writing-mode:lr-tb;text-anchor:start;fill:#000000;fill-opacity:1;stroke:none;stroke-width:0.26458332"
       x="339.86832"
       y="55.191483"
       id="text24616-5"><tspan
         sodipodi:role="line"
         id="tspan24755"
         x="339.86832"
         y="55.191483">x, cd</tspan></text>
    <text
       xml:space="preserve"
       style="font-style:normal;font-variant:normal;font-weight:normal;font-stretch:normal;font-size:6.3499999px;line-height:1.25;font-family:sans-serif;-inkscape-font-specification:'sans-serif, Normal';font-variant-ligatures:normal;font-variant-caps:normal;font-variant-numeric:normal;font-feature-settings:normal;text-align:start;letter-spacing:0px;word-spacing:0px;writing-mode:lr-tb;text-anchor:start;fill:#000000;fill-opacity:1;stroke:none;stroke-width:0.26458332"
       x="293.99756"
       y="67.387123"
       id="text24616-5-9"><tspan
         sodipodi:role="line"
         id="tspan24767"
         x="293.99756"
         y="67.387123">p, cmd</tspan></text>
    <text
       xml:space="preserve"
       style="font-style:normal;font-variant:normal;font-weight:normal;font-stretch:normal;font-size:6.3499999px;line-height:1.25;font-family:sans-serif;-inkscape-font-specification:'sans-serif, Normal';font-variant-ligatures:normal;font-variant-caps:normal;font-variant-numeric:normal;font-feature-settings:normal;text-align:start;letter-spacing:0px;word-spacing:0px;writing-mode:lr-tb;text-anchor:start;fill:#000000;fill-opacity:1;stroke:none;stroke-width:0.26458332"
       x="21.972818"
       y="32.867268"
       id="text24616-5-5"><tspan
         sodipodi:role="line"
         id="tspan24757"
         x="21.972818"
         y="32.867268">y, cs</tspan></text>
    <text
       xml:space="preserve"
       style="font-style:normal;font-variant:normal;font-weight:normal;font-stretch:normal;font-size:6.3499999px;line-height:1.25;font-family:sans-serif;-inkscape-font-specification:'sans-serif, Normal';font-variant-ligatures:normal;font-variant-caps:normal;font-variant-numeric:normal;font-feature-settings:normal;text-align:start;letter-spacing:0px;word-spacing:0px;writing-mode:lr-tb;text-anchor:start;fill:#000000;fill-opacity:1;stroke:none;stroke-width:0.26458332"
       x="32.924088"
       y="61.655861"
       id="text24616-5-5-3"><tspan
         sodipodi:role="line"
         id="tspan24763"
         x="32.924088"
         y="61.655861">q, cms</tspan></text>
    <text
       xml:space="preserve"
       style="font-style:normal;font-variant:normal;font-weight:normal;font-stretch:normal;font-size:6.3499999px;line-height:1.25;font-family:sans-serif;-inkscape-font-specification:'sans-serif, Normal';font-variant-ligatures:normal;font-variant-caps:normal;font-variant-numeric:normal;font-feature-settings:normal;text-align:start;letter-spacing:0px;word-spacing:0px;writing-mode:lr-tb;text-anchor:start;fill:#000000;fill-opacity:1;stroke:none;stroke-width:0.26458332"
       x="197.60516"
       y="150.95273"
       id="text24616-5-5-3-4"><tspan
         sodipodi:role="line"
         id="tspan24747"
         x="197.60516"
         y="150.95273">ref.</tspan></text>
  </g>
</svg>
