<?xml version="1.0" encoding="UTF-8" standalone="no"?>
<!-- Created with Inkscape (http://www.inkscape.org/) -->

<svg
   xmlns:osb="http://www.openswatchbook.org/uri/2009/osb"
   xmlns:dc="http://purl.org/dc/elements/1.1/"
   xmlns:cc="http://creativecommons.org/ns#"
   xmlns:rdf="http://www.w3.org/1999/02/22-rdf-syntax-ns#"
   xmlns:svg="http://www.w3.org/2000/svg"
   xmlns="http://www.w3.org/2000/svg"
   xmlns:sodipodi="http://sodipodi.sourceforge.net/DTD/sodipodi-0.dtd"
   xmlns:inkscape="http://www.inkscape.org/namespaces/inkscape"
   width="258.28827mm"
   height="99.302345mm"
   viewBox="0 0 258.28828 99.302346"
   version="1.1"
   id="svg8"
   inkscape:version="0.92.3 (2405546, 2018-03-11)"
   sodipodi:docname="logo.svg">
  <defs
     id="defs2">
    <linearGradient
       id="linearGradient2387"
       osb:paint="solid">
      <stop
         style="stop-color:#00aa88;stop-opacity:1;"
         offset="0"
         id="stop2385" />
    </linearGradient>
    <linearGradient
       id="linearGradient2381"
       osb:paint="solid">
      <stop
         style="stop-color:#00aa88;stop-opacity:1;"
         offset="0"
         id="stop2379" />
    </linearGradient>
    <linearGradient
       id="linearGradient2373"
       osb:paint="solid">
      <stop
         style="stop-color:#00aa88;stop-opacity:1;"
         offset="0"
         id="stop2371" />
    </linearGradient>
  </defs>
  <sodipodi:namedview
     id="base"
     pagecolor="#ffffff"
     bordercolor="#666666"
     borderopacity="1.0"
     inkscape:pageopacity="0.0"
     inkscape:pageshadow="2"
     inkscape:zoom="0.24748737"
     inkscape:cx="-869.7195"
     inkscape:cy="-246.71065"
     inkscape:document-units="mm"
     inkscape:current-layer="layer1"
     showgrid="false"
     inkscape:window-width="1920"
     inkscape:window-height="1054"
     inkscape:window-x="1920"
     inkscape:window-y="0"
     inkscape:window-maximized="1"
     fit-margin-top="0"
     fit-margin-left="0"
     fit-margin-right="0"
     fit-margin-bottom="0" />
  <metadata
     id="metadata5">
    <rdf:RDF>
      <cc:Work
         rdf:about="">
        <dc:format>image/svg+xml</dc:format>
        <dc:type
           rdf:resource="http://purl.org/dc/dcmitype/StillImage" />
        <dc:title></dc:title>
      </cc:Work>
    </rdf:RDF>
  </metadata>
  <g
     inkscape:groupmode="layer"
     id="layer3"
     inkscape:label="orig_text"
     style="display:none"
     transform="translate(2.6141,-0.08614745)">
    <text
       transform="translate(-83.193313,-26.091312)"
       xml:space="preserve"
       style="font-style:normal;font-weight:normal;font-size:4.23333311px;line-height:1.25;font-family:sans-serif;letter-spacing:0px;word-spacing:0px;fill:#000000;fill-opacity:1;stroke:none;stroke-width:0.26458332"
       x="108.16737"
       y="-6.8136892"
       id="text885-9"><tspan
         sodipodi:role="line"
         id="tspan883-1"
         x="108.16737"
         y="-6.8136892"
         style="font-style:normal;font-variant:normal;font-weight:normal;font-stretch:normal;font-size:50.79999924px;font-family:Frutiger;-inkscape-font-specification:'Frutiger, Normal';font-variant-ligatures:normal;font-variant-caps:normal;font-variant-numeric:normal;font-feature-settings:normal;text-align:start;writing-mode:lr-tb;text-anchor:start;fill:#4d4d4d;stroke-width:0.26458332">AeroFrame</tspan></text>
  </g>
  <g
     inkscape:label="Layer 1"
     inkscape:groupmode="layer"
     id="layer1"
     transform="translate(-80.579212,-26.177459)">
    <flowRoot
       xml:space="preserve"
       id="flowRoot906"
       style="font-style:normal;font-weight:normal;font-size:16px;line-height:1.25;font-family:sans-serif;letter-spacing:0px;word-spacing:0px;fill:#000000;fill-opacity:1;stroke:none"
       transform="matrix(0.26458332,0,0,0.26458332,1.6800739e-6,-5.377987e-8)"><flowRegion
         id="flowRegion908"><rect
           id="rect910"
           width="191.42857"
           height="234.28572"
           x="-14.285714"
           y="-223.1946" /></flowRegion><flowPara
         id="flowPara912" /></flowRoot>    <g
       id="g2614">
      <path
         style="fill:#0088aa;stroke-width:0.9441945"
         id="path815"
         d="m 134.60509,42.375586 -12.93546,12.934521 c -0.74497,0.745913 -1.95826,0.745913 -2.70606,0 l -0.18601,-0.190727 v -9.522203 c -15.61981,1.091491 -27.995383,14.139313 -27.995383,30.031049 0,11.160379 6.124989,21.354846 15.991843,26.602684 2.48417,1.32376 3.42837,4.41033 2.10838,6.90206 -1.3247,2.48795 -4.41033,3.4312 -6.8983,2.1065 -13.202671,-7.02481 -21.404888,-20.667477 -21.404888,-35.611244 0,-21.52008 16.951124,-39.155743 38.199288,-40.261394 v -8.442043 l 0.18601,-0.187895 c 0.7478,-0.745913 1.96109,-0.745913 2.70606,0 l 12.93452,12.931686 c 0.74969,0.749693 0.74969,1.963925 0,2.707006 z"
         inkscape:connector-curvature="0" />
      <path
         d="M 114.15924,57.792071 127.4806,88.5302 h -4.95051 l -3.21783,-7.78579 h -14.94152 l -3.17282,7.78579 H 96.449936 L 109.54627,57.792071 Z m 3.62287,19.216965 -3.53286,-8.573376 q -1.05761,-2.452746 -1.57516,-3.847895 -0.51755,-1.417645 -0.9226,-3.015303 -0.33753,1.237622 -0.81008,2.475244 -0.45004,1.215125 -1.77768,4.477966 l -3.39785,8.483364 z"
         style="font-style:normal;font-variant:normal;font-weight:normal;font-stretch:normal;font-size:39.94507217px;line-height:1.25;font-family:Frutiger;-inkscape-font-specification:'Frutiger, Normal';font-variant-ligatures:normal;font-variant-caps:normal;font-variant-numeric:normal;font-feature-settings:normal;text-align:start;letter-spacing:0px;word-spacing:0px;writing-mode:lr-tb;text-anchor:start;fill:#0088aa;fill-opacity:1;stroke:none;stroke-width:0.24002445"
         id="path2502"
         inkscape:connector-curvature="0" />
      <path
         d="m 133.71373,78.33667 q 0.45005,3.352841 2.45275,5.310534 2.02521,1.935196 5.06302,1.935196 1.80018,0 3.51035,-0.51755 1.71018,-0.517551 3.53286,-1.597658 v 4.00541 q -2.0477,0.900083 -3.71287,1.282628 -1.66517,0.382532 -3.51036,0.382532 -2.61027,0 -4.74798,-0.855077 -2.13772,-0.855089 -3.64538,-2.452758 -1.50765,-1.597658 -2.31773,-3.847883 -0.81009,-2.272735 -0.81009,-4.973008 0,-3.442853 1.30514,-6.075623 1.30513,-2.632771 3.73538,-4.072913 2.45275,-1.462652 5.55806,-1.462652 3.64538,0 5.8056,1.800179 2.18272,1.777681 3.08281,4.702984 0.92259,2.925302 0.92259,6.435659 z m 0.045,-3.26283 h 11.99372 q -0.22502,-1.845196 -0.85509,-3.240332 -0.63006,-1.417646 -1.86769,-2.272735 -1.23762,-0.855089 -3.03781,-0.855089 -2.47525,0 -4.14042,1.710178 -1.64267,1.687669 -2.09271,4.657978 z"
         style="font-style:normal;font-variant:normal;font-weight:normal;font-stretch:normal;font-size:39.94507217px;line-height:1.25;font-family:Frutiger;-inkscape-font-specification:'Frutiger, Normal';font-variant-ligatures:normal;font-variant-caps:normal;font-variant-numeric:normal;font-feature-settings:normal;text-align:start;letter-spacing:0px;word-spacing:0px;writing-mode:lr-tb;text-anchor:start;fill:#0088aa;fill-opacity:1;stroke:none;stroke-width:0.24002445"
         id="path2504"
         inkscape:connector-curvature="0" />
      <path
         d="m 154.9784,66.005411 h 3.87039 l 0.20252,4.005409 q 1.0126,-2.115219 2.63277,-3.195326 1.64267,-1.102616 3.80289,-1.102616 1.12511,0 2.27272,0.292533 v 3.825386 q -1.0801,-0.382533 -1.9802,-0.382533 -2.18272,0 -3.62286,1.282628 -1.44015,1.26013 -2.09272,3.240332 -0.65256,1.957693 -0.65256,4.09541 v 1.620166 8.8434 h -4.14042 V 74.803805 q 0,-3.330333 -0.29253,-8.798394 z"
         style="font-style:normal;font-variant:normal;font-weight:normal;font-stretch:normal;font-size:39.94507217px;line-height:1.25;font-family:Frutiger;-inkscape-font-specification:'Frutiger, Normal';font-variant-ligatures:normal;font-variant-caps:normal;font-variant-numeric:normal;font-feature-settings:normal;text-align:start;letter-spacing:0px;word-spacing:0px;writing-mode:lr-tb;text-anchor:start;fill:#0088aa;fill-opacity:1;stroke:none;stroke-width:0.24002445"
         id="path2506"
         inkscape:connector-curvature="0" />
      <path
         d="m 193.20979,77.324066 q 0,3.420344 -1.48515,6.120617 -1.46265,2.700274 -4.14042,4.207931 -2.65528,1.485148 -5.98561,1.485148 -3.28534,0 -5.8956,-1.507645 -2.61027,-1.530155 -4.09542,-4.252937 -1.48515,-2.745279 -1.48515,-6.053114 0,-2.610273 0.83258,-4.770487 0.85509,-2.182723 2.40775,-3.780392 1.57516,-1.620155 3.69037,-2.497752 2.13772,-0.877587 4.59048,-0.877587 2.47524,0 4.61296,0.855089 2.13771,0.85509 3.71287,2.475256 1.57516,1.620154 2.40776,3.825386 0.83258,2.20522 0.83258,4.770487 z m -4.43295,0.08999 q 0,-1.845195 -0.54006,-3.487859 -0.51755,-1.642663 -1.48515,-2.790285 -0.94509,-1.170118 -2.25023,-1.800178 -1.28262,-0.630071 -2.81279,-0.630071 -3.08281,0 -5.13052,2.430249 -2.0252,2.43025 -2.0252,6.143127 0,2.452746 0.90008,4.410451 0.9226,1.957693 2.54276,3.037812 1.64268,1.080107 3.71288,1.080107 2.00271,0 3.62288,-1.05761 1.62016,-1.080107 2.54276,-3.015303 0.92259,-1.935196 0.92259,-4.32044 z"
         style="font-style:normal;font-variant:normal;font-weight:normal;font-stretch:normal;font-size:39.94507217px;line-height:1.25;font-family:Frutiger;-inkscape-font-specification:'Frutiger, Normal';font-variant-ligatures:normal;font-variant-caps:normal;font-variant-numeric:normal;font-feature-settings:normal;text-align:start;letter-spacing:0px;word-spacing:0px;writing-mode:lr-tb;text-anchor:start;fill:#0088aa;fill-opacity:1;stroke:none;stroke-width:0.24002445"
         id="path2508"
         inkscape:connector-curvature="0" />
    </g>
    <g
       id="g2622">
      <path
         style="fill:#00aa88;stroke-width:0.9441945"
         id="path815-9"
         d="m 284.84161,109.28167 12.93547,-12.934522 c 0.74498,-0.745913 1.95826,-0.745913 2.70606,0 l 0.18601,0.190728 v 9.522204 c 15.61981,-1.09149 27.99537,-14.139313 27.99537,-30.03105 0,-11.160379 -6.125,-21.354846 -15.99183,-26.602679 -2.48417,-1.323761 -3.42836,-4.410331 -2.10838,-6.902063 1.3247,-2.487951 4.41033,-3.431201 6.89828,-2.106496 13.20268,7.024807 21.40489,20.667471 21.40489,35.611238 0,21.52008 -16.95113,39.15574 -38.19928,40.2614 v 8.44204 l -0.186,0.1879 c -0.7478,0.74591 -1.9611,0.74591 -2.70606,0 l -12.93453,-12.93169 c -0.74969,-0.74969 -0.74969,-1.96393 0,-2.70701 z"
         inkscape:connector-curvature="0" />
      <path
         d="m 215.32955,57.792071 v 3.780391 h -11.92622 v 9.15843 h 11.47617 v 3.735386 H 203.40333 V 88.5302 h -4.38796 V 57.792071 Z"
         style="font-style:normal;font-variant:normal;font-weight:normal;font-stretch:normal;font-size:39.94507217px;line-height:1.25;font-family:Frutiger;-inkscape-font-specification:'Frutiger, Normal';font-variant-ligatures:normal;font-variant-caps:normal;font-variant-numeric:normal;font-feature-settings:normal;text-align:start;letter-spacing:0px;word-spacing:0px;writing-mode:lr-tb;text-anchor:start;fill:#00aa88;fill-opacity:1;stroke:none;stroke-width:0.24002445"
         id="path2510"
         inkscape:connector-curvature="0" />
      <path
         d="m 220.50507,66.005411 h 3.8704 l 0.20252,4.005409 q 1.0126,-2.115219 2.63277,-3.195326 1.64266,-1.102616 3.80287,-1.102616 1.12513,0 2.27274,0.292533 v 3.825386 q -1.08011,-0.382533 -1.9802,-0.382533 -2.18273,0 -3.62287,1.282628 -1.44014,1.26013 -2.09271,3.240332 -0.65257,1.957693 -0.65257,4.09541 v 1.620166 8.8434 h -4.14043 V 74.803805 q 0,-3.330333 -0.29252,-8.798394 z"
         style="font-style:normal;font-variant:normal;font-weight:normal;font-stretch:normal;font-size:39.94507217px;line-height:1.25;font-family:Frutiger;-inkscape-font-specification:'Frutiger, Normal';font-variant-ligatures:normal;font-variant-caps:normal;font-variant-numeric:normal;font-feature-settings:normal;text-align:start;letter-spacing:0px;word-spacing:0px;writing-mode:lr-tb;text-anchor:start;fill:#00aa88;fill-opacity:1;stroke:none;stroke-width:0.24002445"
         id="path2512"
         inkscape:connector-curvature="0" />
      <path
         d="m 238.28188,67.69308 q 1.84519,-1.080107 3.64538,-1.57516 1.82267,-0.495054 3.89289,-0.495054 3.17283,0 5.31054,1.215125 2.16022,1.192628 2.99281,3.397847 0.69756,1.845196 0.69756,6.255636 v 4.387954 q 0,2.542758 0.045,4.455457 0.0675,1.89019 0.18002,3.195315 h -3.8254 q -0.045,-0.787574 -0.045,-1.755172 0,-1.192628 0.045,-2.11522 -1.30512,2.182723 -3.10531,3.195327 -1.80018,0.990106 -4.45545,0.990106 -2.34024,0 -4.14043,-0.832591 -1.77768,-0.832581 -2.74527,-2.362735 -0.9451,-1.552663 -0.9451,-3.577871 0,-1.777681 0.76508,-3.127812 0.78758,-1.37264 2.29524,-2.31774 1.50764,-0.967598 3.69036,-1.440143 2.18273,-0.472556 5.04053,-0.472556 1.71016,0 3.15032,0.08999 -0.045,-2.902793 -1.41765,-4.252936 -1.37264,-1.372639 -4.20793,-1.372639 -1.84518,0 -3.37535,0.517562 -1.53015,0.495041 -3.26283,1.642663 z m 12.57878,10.193542 q -1.39514,-0.135018 -2.27272,-0.135018 -8.32585,0 -8.32585,4.275434 0,1.035113 0.54004,1.822687 0.54006,0.787586 1.53017,1.237633 0.9901,0.450036 2.25023,0.450036 2.31772,0 3.71287,-1.012592 1.39514,-1.012604 1.9802,-2.722782 0.58506,-1.710178 0.58506,-3.915398 z"
         style="font-style:normal;font-variant:normal;font-weight:normal;font-stretch:normal;font-size:39.94507217px;line-height:1.25;font-family:Frutiger;-inkscape-font-specification:'Frutiger, Normal';font-variant-ligatures:normal;font-variant-caps:normal;font-variant-numeric:normal;font-feature-settings:normal;text-align:start;letter-spacing:0px;word-spacing:0px;writing-mode:lr-tb;text-anchor:start;fill:#00aa88;fill-opacity:1;stroke:none;stroke-width:0.24002445"
         id="path2514"
         inkscape:connector-curvature="0" />
      <path
         d="m 265.28462,66.005411 0.24752,3.622865 q 0.60757,-1.237622 1.64268,-2.137717 1.0351,-0.900083 2.40774,-1.372639 1.39514,-0.495054 3.03781,-0.495054 2.54276,0 4.23043,1.170119 1.71018,1.147622 2.40774,3.352842 2.25024,-4.522961 7.42576,-4.522961 2.40775,0 3.9379,0.922604 1.53015,0.922592 2.29523,2.452747 0.78759,1.507657 1.03511,3.420344 0.27003,1.89019 0.27003,4.275434 V 88.5302 h -4.18542 V 77.526586 q 0,-2.182722 -0.09,-3.37535 -0.0675,-1.192616 -0.27003,-1.89019 -0.87759,-3.082817 -3.8704,-3.082817 -0.90008,0 -1.75517,0.315041 -0.83259,0.31503 -1.53016,0.945089 -0.69757,0.630071 -1.21512,1.485149 -0.51755,0.855089 -0.81008,1.912699 -0.24753,0.787586 -0.33754,1.867692 -0.0675,1.080107 -0.0675,3.285339 V 88.5302 h -4.20794 V 76.96403 q 0,-2.340237 -0.0675,-3.195327 -0.045,-0.855089 -0.24752,-1.552663 -0.42755,-1.440142 -1.41765,-2.227728 -0.9676,-0.810083 -2.31774,-0.810083 -1.68767,0 -3.06031,1.012604 -1.35014,0.990106 -2.11522,2.767787 -0.76507,1.777681 -0.76507,4.00541 v 1.620166 9.946004 h -4.1854 V 75.861414 q 0,-6.008108 -0.29253,-9.856003 z"
         style="font-style:normal;font-variant:normal;font-weight:normal;font-stretch:normal;font-size:39.94507217px;line-height:1.25;font-family:Frutiger;-inkscape-font-specification:'Frutiger, Normal';font-variant-ligatures:normal;font-variant-caps:normal;font-variant-numeric:normal;font-feature-settings:normal;text-align:start;letter-spacing:0px;word-spacing:0px;writing-mode:lr-tb;text-anchor:start;fill:#00aa88;fill-opacity:1;stroke:none;stroke-width:0.24002445"
         id="path2516"
         inkscape:connector-curvature="0" />
      <path
         d="m 303.11097,78.33667 q 0.45005,3.352841 2.45276,5.310534 2.02521,1.935196 5.06301,1.935196 1.80019,0 3.51036,-0.51755 1.71017,-0.517551 3.53286,-1.597658 v 4.00541 q -2.0477,0.900083 -3.71288,1.282628 -1.66517,0.382532 -3.51035,0.382532 -2.61028,0 -4.74799,-0.855077 -2.13772,-0.855089 -3.64536,-2.452758 -1.50766,-1.597658 -2.31775,-3.847883 -0.81008,-2.272735 -0.81008,-4.973008 0,-3.442853 1.30514,-6.075623 1.30512,-2.632771 3.73537,-4.072913 2.45276,-1.462652 5.55808,-1.462652 3.64536,0 5.80558,1.800179 2.18273,1.777681 3.08282,4.702984 0.92259,2.925302 0.92259,6.435659 z m 0.045,-3.26283 h 11.99372 q -0.22502,-1.845196 -0.85508,-3.240332 -0.63007,-1.417646 -1.86769,-2.272735 -1.23764,-0.855089 -3.03781,-0.855089 -2.47526,0 -4.14042,1.710178 -1.64267,1.687669 -2.09272,4.657978 z"
         style="font-style:normal;font-variant:normal;font-weight:normal;font-stretch:normal;font-size:39.94507217px;line-height:1.25;font-family:Frutiger;-inkscape-font-specification:'Frutiger, Normal';font-variant-ligatures:normal;font-variant-caps:normal;font-variant-numeric:normal;font-feature-settings:normal;text-align:start;letter-spacing:0px;word-spacing:0px;writing-mode:lr-tb;text-anchor:start;fill:#00aa88;fill-opacity:1;stroke:none;stroke-width:0.24002445"
         id="path2518"
         inkscape:connector-curvature="0" />
    </g>
  </g>
</svg>
