DBRep_DrawableShape

CASCADE Topology V1, (c) Matra-Datavision
Locations 0
Curve2ds 4
1 0 0 1 0
1 0 1 1 0
1 6.2831853071795862 0 0 1
1 0 0 0 1
Curves 2
2 1 0 0 1 0 0 0 -1 0 0 0 -1 0.0012600000000000001
7 0 0  3 81 79  1 -0.0012600000000000001 0  0.99166806910433225 -0.0024290474198804652 0  0.97916907934632713 -0.0041556686870856405 0  0.9625013807263838 -0.0064065754633828211 0  0.95000132931521664 -0.0080695147108952852 0  0.93750127960794405 -0.009707852209573575 0  0.92500124260478966 -0.011322315812076994 0  0.91250118837727034 -0.012912930886184051 0  0.90000115960536642 -0.014480856552602568 0  0.88750112337475495 -0.016025977431048548 0  0.87500108849312463 -0.01754880638747152 0  0.86250106246199998 -0.019049805988652704 0  0.85000102944828482 -0.020529010547511328 0  0.83750100916791592 -0.021987024618123435 0  0.82500098575434166 -0.023423790211651842 0  0.81250096307329922 -0.024839539588589164 0  0.80000095229575618 -0.02623460040061484 0  0.7875009305699 -0.027608627134194662 0  0.77500092060707626 -0.028962080624074963 0  0.76250090701572382 -0.030294657285077038 0  0.75000090093676053 -0.031606513785123712 0  0.73750089105646288 -0.032897325203243725 0  0.72500088155224662 -0.034167037781514191 0  0.71250087862114031 -0.035415590209551026 0  0.70000087895100138 -0.036642679019159449 0  0.68750087227697532 -0.037847781327729632 0  0.6750008748552182 -0.039030894820797343 0  0.66250087359381438 -0.04019134768145604 0  0.65000087480075985 -0.04132883243621395 0  0.63750087815684497 -0.042442849673491136 0  0.625000877465687 -0.043532704745740072 0  0.61250088448934137 -0.044598076807669175 0  0.60000088431277843 -0.04563794173852994 0  0.58750089092946689 -0.046651919785977214 0  0.57500089296569545 -0.047638951624771643 0  0.5625008930402241 -0.048598256747966771 0  0.5500009010820599 -0.049529215643651064 0  0.53750089643319277 -0.050430285415768737 0  0.52500090129826238 -0.051301060818450712 0  0.51250089779487273 -0.052139902072950384 0  0.50000089749479981 -0.052945976246431804 0  0.48750088860344998 -0.053717653632727083 0  0.47500087974225197 -0.054453887628772561 0  0.4625008713526475 -0.055153292696117018 0  0.45000085526456401 -0.055814057545055237 0  0.43750083301262427 -0.056434614408511809 0  0.42500080860956885 -0.057013445108689248 0  0.41250077772299104 -0.057548589221626589 0  0.40000073803096653 -0.058038007077278866 0  0.38750069220288164 -0.058479817687152012 0  0.37500063518954613 -0.058871583983993149 0  0.3625005686566567 -0.059211135066700046 0  0.3500004886680172 -0.059495790765773687 0  0.33750039371847834 -0.059722842002354941 0  0.32500028290526284 -0.059889604063107046 0  0.31250015190983488 -0.059992723391208563 0  0.29999999813430406 -0.060029097107844702 0  0.2874998173873341 -0.059994687799052197 0  0.27499960455498923 -0.059885944767455929 0  0.26249935422640547 -0.059698303969986058 0  0.24999905865034713 -0.059427166686205624 0  0.23749870917010102 -0.059067284443917699 0  0.22499829176985606 -0.058613039953011835 0  0.21249779146755365 -0.058057937119780946 0  0.19999719409576988 -0.057394559096993807 0  0.18749645845558685 -0.056615244552909234 0  0.17499556762814103 -0.055710017225365414 0  0.16249444360960999 -0.054668793588188679 0  0.14999303957538462 -0.053478201474552511 0  0.13749122200948111 -0.052123698918757067 0  0.12498884671342025 -0.050586635395975146 0  0.11248561848475973 -0.048844854472586741 0  0.099981138068765518 -0.046869505690216813 0  0.087474479216191003 -0.044623807360225462 0  0.074964621118000355 -0.04205569685918592 0  0.062446492760321902 -0.039098544280603768 0  0.049918541725142838 -0.035624947347748813 0  0.037328260760967027 -0.031515506079397577 0  0.019422298161866122 -0.023907069430545717 0  0.0056742009741973755 -0.01660351401419858 0  0 0 0
 0 4 0.024905020621093604 1 0.037355229715489859 1 0.049803787515203535 1 0.062250756693110927 1 0.074696191999208086 1 0.087140150227694502 1 0.09958267900039075 1 0.11202382629992173 1 0.12446363161647073 1 0.13690213371776525 1 0.14933937048897158 1 0.16177537330286337 1 0.1742101729986055 1 0.18664379607006579 1 0.19907626507423062 1 0.21150760225959656 1 0.22393782432649634 1 0.23636694978918213 1 0.24879499018832782 1 0.26122195732031672 1 0.27364786151859527 1 0.28607271190080846 1 0.29849651320870207 1 0.31091926917362644 1 0.32334098125439875 1 0.33576165190351764 1 0.34818128001473453 1 0.36059986435023433 1 0.37301740357171842 1 0.38543389372362652 1 0.39784933266951494 1 0.41026371484180674 1 0.42267703707553572 1 0.43508929601632645 1 0.44750048755453947 1 0.45991061060022531 1 0.47231966164774714 1 0.48472764237851379 1 0.49713455205053769 1 0.5095403958993332 1 0.52194518122552613 1 0.53434891844675636 1 0.54675162067595628 1 0.55915330642894168 1 0.57155400072841434 1 0.58395373433544895 1 0.5963525448276461 1 0.60875047830170248 1 0.62114759129271047 1 0.63354395079841141 1 0.64593963741319882 1 0.6583347467197086 1 0.67072939181111524 1 0.68312370595321636 1 0.69551784561604479 1 0.70791199495225621 1 0.72030637046871193 1 0.73270122684714922 1 0.74509686419033272 1 0.75749363652144297 1 0.76989196402029769 1 0.78229234787255519 1 0.79469538715463528 1 0.80710180706076873 1 0.81951248666902865 1 0.83192851406250057 1 0.84435124088802904 1 0.85678238569061316 1 0.86922416081563947 1 0.88167949619479558 1 0.89415237774934153 1 0.90664844127968758 1 0.91917601939989868 1 0.931748273293869 1 0.94438793081305228 1 0.95714020787863818 1 0.97012207626326408 1 1 4
Polygon3D 0
PolygonOnTriangulations 0
Surfaces 2
7 0 0 0 1 0 0
8 0 1
7 0 0  3 81 79  1 -0.0012600000000000001 0  0.99166806910433225 -0.0024290474198804652 0  0.97916907934632713 -0.0041556686870856405 0  0.9625013807263838 -0.0064065754633828211 0  0.95000132931521664 -0.0080695147108952852 0  0.93750127960794405 -0.009707852209573575 0  0.92500124260478966 -0.011322315812076994 0  0.91250118837727034 -0.012912930886184051 0  0.90000115960536642 -0.014480856552602568 0  0.88750112337475495 -0.016025977431048548 0  0.87500108849312463 -0.01754880638747152 0  0.86250106246199998 -0.019049805988652704 0  0.85000102944828482 -0.020529010547511328 0  0.83750100916791592 -0.021987024618123435 0  0.82500098575434166 -0.023423790211651842 0  0.81250096307329922 -0.024839539588589164 0  0.80000095229575618 -0.02623460040061484 0  0.7875009305699 -0.027608627134194662 0  0.77500092060707626 -0.028962080624074963 0  0.76250090701572382 -0.030294657285077038 0  0.75000090093676053 -0.031606513785123712 0  0.73750089105646288 -0.032897325203243725 0  0.72500088155224662 -0.034167037781514191 0  0.71250087862114031 -0.035415590209551026 0  0.70000087895100138 -0.036642679019159449 0  0.68750087227697532 -0.037847781327729632 0  0.6750008748552182 -0.039030894820797343 0  0.66250087359381438 -0.04019134768145604 0  0.65000087480075985 -0.04132883243621395 0  0.63750087815684497 -0.042442849673491136 0  0.625000877465687 -0.043532704745740072 0  0.61250088448934137 -0.044598076807669175 0  0.60000088431277843 -0.04563794173852994 0  0.58750089092946689 -0.046651919785977214 0  0.57500089296569545 -0.047638951624771643 0  0.5625008930402241 -0.048598256747966771 0  0.5500009010820599 -0.049529215643651064 0  0.53750089643319277 -0.050430285415768737 0  0.52500090129826238 -0.051301060818450712 0  0.51250089779487273 -0.052139902072950384 0  0.50000089749479981 -0.052945976246431804 0  0.48750088860344998 -0.053717653632727083 0  0.47500087974225197 -0.054453887628772561 0  0.4625008713526475 -0.055153292696117018 0  0.45000085526456401 -0.055814057545055237 0  0.43750083301262427 -0.056434614408511809 0  0.42500080860956885 -0.057013445108689248 0  0.41250077772299104 -0.057548589221626589 0  0.40000073803096653 -0.058038007077278866 0  0.38750069220288164 -0.058479817687152012 0  0.37500063518954613 -0.058871583983993149 0  0.3625005686566567 -0.059211135066700046 0  0.3500004886680172 -0.059495790765773687 0  0.33750039371847834 -0.059722842002354941 0  0.32500028290526284 -0.059889604063107046 0  0.31250015190983488 -0.059992723391208563 0  0.29999999813430406 -0.060029097107844702 0  0.2874998173873341 -0.059994687799052197 0  0.27499960455498923 -0.059885944767455929 0  0.26249935422640547 -0.059698303969986058 0  0.24999905865034713 -0.059427166686205624 0  0.23749870917010102 -0.059067284443917699 0  0.22499829176985606 -0.058613039953011835 0  0.21249779146755365 -0.058057937119780946 0  0.19999719409576988 -0.057394559096993807 0  0.18749645845558685 -0.056615244552909234 0  0.17499556762814103 -0.055710017225365414 0  0.16249444360960999 -0.054668793588188679 0  0.14999303957538462 -0.053478201474552511 0  0.13749122200948111 -0.052123698918757067 0  0.12498884671342025 -0.050586635395975146 0  0.11248561848475973 -0.048844854472586741 0  0.099981138068765518 -0.046869505690216813 0  0.087474479216191003 -0.044623807360225462 0  0.074964621118000355 -0.04205569685918592 0  0.062446492760321902 -0.039098544280603768 0  0.049918541725142838 -0.035624947347748813 0  0.037328260760967027 -0.031515506079397577 0  0.019422298161866122 -0.023907069430545717 0  0.0056742009741973755 -0.01660351401419858 0  0 0 0
 0 4 0.024905020621093604 1 0.037355229715489859 1 0.049803787515203535 1 0.062250756693110927 1 0.074696191999208086 1 0.087140150227694502 1 0.09958267900039075 1 0.11202382629992173 1 0.12446363161647073 1 0.13690213371776525 1 0.14933937048897158 1 0.16177537330286337 1 0.1742101729986055 1 0.18664379607006579 1 0.19907626507423062 1 0.21150760225959656 1 0.22393782432649634 1 0.23636694978918213 1 0.24879499018832782 1 0.26122195732031672 1 0.27364786151859527 1 0.28607271190080846 1 0.29849651320870207 1 0.31091926917362644 1 0.32334098125439875 1 0.33576165190351764 1 0.34818128001473453 1 0.36059986435023433 1 0.37301740357171842 1 0.38543389372362652 1 0.39784933266951494 1 0.41026371484180674 1 0.42267703707553572 1 0.43508929601632645 1 0.44750048755453947 1 0.45991061060022531 1 0.47231966164774714 1 0.48472764237851379 1 0.49713455205053769 1 0.5095403958993332 1 0.52194518122552613 1 0.53434891844675636 1 0.54675162067595628 1 0.55915330642894168 1 0.57155400072841434 1 0.58395373433544895 1 0.5963525448276461 1 0.60875047830170248 1 0.62114759129271047 1 0.63354395079841141 1 0.64593963741319882 1 0.6583347467197086 1 0.67072939181111524 1 0.68312370595321636 1 0.69551784561604479 1 0.70791199495225621 1 0.72030637046871193 1 0.73270122684714922 1 0.74509686419033272 1 0.75749363652144297 1 0.76989196402029769 1 0.78229234787255519 1 0.79469538715463528 1 0.80710180706076873 1 0.81951248666902865 1 0.83192851406250057 1 0.84435124088802904 1 0.85678238569061316 1 0.86922416081563947 1 0.88167949619479558 1 0.89415237774934153 1 0.90664844127968758 1 0.91917601939989868 1 0.931748273293869 1 0.94438793081305228 1 0.95714020787863818 1 0.97012207626326408 1 1 4
1 1 0 0 1 0 0 0 -1 0 0 0 -1
Triangulations 0

TShapes 11
Ve
1e-07
1 -0.00126 0
0 0

0101101
*
Ed
 1e-07 1 1 0
1  1 0 0 6.28318530717959
2  1 1 0 0 6.28318530717959
0

0101100
+11 0 -11 0 *
Ve
1e-07
8.67361737988404e-19 3.46944695195361e-18 0
0 0

0101101
*
Ed
 1e-07 1 1 1
2  2 1 0 0 6.28318530717959
0

0101100
+9 0 -9 0 *
Ed
 1e-07 1 1 0
1  2 0 0 1
3  3 4C2 1 0 0 1
0

0101000
+11 0 -9 0 *
Wi

0101000
+10 0 -8 0 -7 0 +7 0 *
Fa
0  1e-07 1 0

0111000
+6 0 *
Wi

0101100
+10 0 *
Fa
0  1e-07 2 0

0111000
+4 0 *
Sh

0101100
+5 0 -3 0 *
So

1100000
-2 0 *

+1 0