DBRep_DrawableShape

CASCADE Topology V1, (c) Matra-Datavision
Locations 0
Curve2ds 12
1 0 0 0 1 
1 1 0 0 1 
1 0 0 1 0 
7 0 0  3 35 33  0 0  0.22500959592832004 -0.036594568564192978  0.42258276026102237 -0.059013491160059002  1.1191066580844833 -0.13540959424010915  1.6264035485099981 -0.18298398891804957  2.1735775213686637 -0.22879001363146098  2.7213188268736488 -0.26531651901120573  3.2271005805180764 -0.29092572016456691  3.7841949833240527 -0.30068800352496383  4.0563836123338497 -0.29752813747763784  4.3517622163059855 -0.2869524147383139  4.6030081936335883 -0.27020352030010553  4.8810475367210024 -0.2367572521488259  5.0195841364273086 -0.21125304587990182  5.1562829934246359 -0.18244801449415146  5.2998998487670654 -0.13038246141724594  5.3624724851298247 -0.10517455801215028  5.4699667229606384 -2.7798943702528334e-16  5.3624724851298247 0.10517455801215221  5.2998998487670654 0.13038246141724685  5.1562829934246359 0.18244801449415279  5.0195841364273086 0.21125304587990296  4.8810475367210024 0.23675725214882701  4.6030081936335883 0.27020352030010669  4.3517622163059855 0.28695241473831501  4.0563836123338533 0.29752813747763884  3.7841949833240527 0.300688003524965  3.2271005805180835 0.29092572016456775  2.7213188268736488 0.26531651901120656  2.1735775213686637 0.2287900136314614  1.6264035485099981 0.18298398891805012  1.1191066580844833 0.13540959424010932  0.42258276026101527 0.059013491160059134  0.22500959592832004 0.036594568564193145  0 0 
 0 4 0.060205312289675093 1 0.096097026036742014 1 0.13585493555421468 1 0.17559344690875989 1 0.2153131963774951 1 0.25501528377839749 1 0.29083106632997424 1 0.32276929078183114 1 0.35084230949771 1 0.37894356754333397 1 0.4043449306602116 1 0.42707204921063924 1 0.44718809179464775 1 0.46557345225457558 1 0.48320464042182448 1 0.50000000000000011 1 0.51679535957817579 1 0.53442654774542475 1 0.55281190820535253 1 0.5729279507893611 1 0.59565506933978851 1 0.6210564324566662 1 0.64915769050229011 1 0.67723070921816897 1 0.70916893367002587 1 0.74498471622160256 1 0.78468680362250509 1 0.82440655309124022 1 0.86414506444578543 1 0.90390297396325803 1 0.93979468771032504 1 1 4
1 0.50000000000000011 0 0 1 
1 0.50000000000000011 0 0 1 
7 0 0  3 35 33  0 0  0.078528461593087684 -0.012771539946908918  0.14748159482775947 -0.020595765692254204  0.39056878376843684 -0.047258079815824153  0.56761565242182144 -0.063861589733245336  0.75857964280227463 -0.079847936816698981  0.94974163256024013 -0.092595722646174647  1.1262597177187175 -0.10153335870451058  1.3206859431158193 -0.10494040507237924  1.4156799108667784 -0.10383760875495542  1.5187671914858356 -0.10014667125433215  1.6064521633182025 -0.094301290839232929  1.7034880332104549 -0.08262851079211242  1.751837375843543 -0.07372751805035109  1.7995453453514472 -0.063674534139098127  1.8496676997441455 -0.04550360558140356  1.8715055811514674 -0.036706022826704397  1.9090211239537496 -9.6710833785706996e-17  1.8715055811514674 0.036706022826705077  1.8496676997441455 0.045503605581403907  1.7995453453514472 0.063674534139098585  1.751837375843543 0.073727518050351507  1.7034880332104549 0.082628510792112808  1.6064521633182025 0.094301290839233332  1.5187671914858356 0.10014667125433253  1.4156799108667784 0.10383760875495575  1.3206859431158193 0.10494040507237959  1.1262597177187175 0.10153335870451084  0.94974163256024013 0.092595722646174883  0.75857964280227463 0.079847936816699133  0.56761565242182144 0.063861589733245544  0.39056878376843684 0.04725807981582425  0.14748159482775947 0.020595765692254245  0.078528461593087684 0.012771539946908977  0 0 
 0 4 0.060205312289675093 1 0.096097026036742014 1 0.13585493555421468 1 0.17559344690875989 1 0.2153131963774951 1 0.25501528377839749 1 0.29083106632997424 1 0.32276929078183114 1 0.35084230949771 1 0.37894356754333397 1 0.4043449306602116 1 0.42707204921063924 1 0.44718809179464775 1 0.46557345225457558 1 0.48320464042182448 1 0.50000000000000011 1 0.51679535957817579 1 0.53442654774542475 1 0.55281190820535253 1 0.5729279507893611 1 0.59565506933978851 1 0.6210564324566662 1 0.64915769050229011 1 0.67723070921816897 1 0.70916893367002587 1 0.74498471622160256 1 0.78468680362250509 1 0.82440655309124022 1 0.86414506444578543 1 0.90390297396325803 1 0.93979468771032504 1 1 4
1 0 0.99999999999999956 1 0 
1 0 0 1 0 
7 0 0  3 35 33  0 0  0.22500959592832004 -0.036594568564192978  0.42258276026102237 -0.059013491160059002  1.1191066580844833 -0.13540959424010915  1.6264035485099981 -0.18298398891804957  2.1735775213686637 -0.22879001363146098  2.7213188268736488 -0.26531651901120573  3.2271005805180764 -0.29092572016456691  3.7841949833240527 -0.30068800352496383  4.0563836123338497 -0.29752813747763784  4.3517622163059855 -0.2869524147383139  4.6030081936335883 -0.27020352030010553  4.8810475367210024 -0.2367572521488259  5.0195841364273086 -0.21125304587990182  5.1562829934246359 -0.18244801449415146  5.2998998487670654 -0.13038246141724594  5.3624724851298247 -0.10517455801215028  5.4699667229606384 -2.7798943702528334e-16  5.3624724851298247 0.10517455801215221  5.2998998487670654 0.13038246141724685  5.1562829934246359 0.18244801449415279  5.0195841364273086 0.21125304587990296  4.8810475367210024 0.23675725214882701  4.6030081936335883 0.27020352030010669  4.3517622163059855 0.28695241473831501  4.0563836123338533 0.29752813747763884  3.7841949833240527 0.300688003524965  3.2271005805180835 0.29092572016456775  2.7213188268736488 0.26531651901120656  2.1735775213686637 0.2287900136314614  1.6264035485099981 0.18298398891805012  1.1191066580844833 0.13540959424010932  0.42258276026101527 0.059013491160059134  0.22500959592832004 0.036594568564193145  0 0 
 0 4 0.060205312289675093 1 0.096097026036742014 1 0.13585493555421468 1 0.17559344690875989 1 0.2153131963774951 1 0.25501528377839749 1 0.29083106632997424 1 0.32276929078183114 1 0.35084230949771 1 0.37894356754333397 1 0.4043449306602116 1 0.42707204921063924 1 0.44718809179464775 1 0.46557345225457558 1 0.48320464042182448 1 0.50000000000000011 1 0.51679535957817579 1 0.53442654774542475 1 0.55281190820535253 1 0.5729279507893611 1 0.59565506933978851 1 0.6210564324566662 1 0.64915769050229011 1 0.67723070921816897 1 0.70916893367002587 1 0.74498471622160256 1 0.78468680362250509 1 0.82440655309124022 1 0.86414506444578543 1 0.90390297396325803 1 0.93979468771032504 1 1 4
7 0 0  3 35 33  0 0  0.078528461593087684 -0.012771539946908918  0.14748159482775947 -0.020595765692254204  0.39056878376843684 -0.047258079815824153  0.56761565242182144 -0.063861589733245336  0.75857964280227463 -0.079847936816698981  0.94974163256024013 -0.092595722646174647  1.1262597177187175 -0.10153335870451058  1.3206859431158193 -0.10494040507237924  1.4156799108667784 -0.10383760875495542  1.5187671914858356 -0.10014667125433215  1.6064521633182025 -0.094301290839232929  1.7034880332104549 -0.08262851079211242  1.751837375843543 -0.07372751805035109  1.7995453453514472 -0.063674534139098127  1.8496676997441455 -0.04550360558140356  1.8715055811514674 -0.036706022826704397  1.9090211239537496 -9.6710833785706996e-17  1.8715055811514674 0.036706022826705077  1.8496676997441455 0.045503605581403907  1.7995453453514472 0.063674534139098585  1.751837375843543 0.073727518050351507  1.7034880332104549 0.082628510792112808  1.6064521633182025 0.094301290839233332  1.5187671914858356 0.10014667125433253  1.4156799108667784 0.10383760875495575  1.3206859431158193 0.10494040507237959  1.1262597177187175 0.10153335870451084  0.94974163256024013 0.092595722646174883  0.75857964280227463 0.079847936816699133  0.56761565242182144 0.063861589733245544  0.39056878376843684 0.04725807981582425  0.14748159482775947 0.020595765692254245  0.078528461593087684 0.012771539946908977  0 0 
 0 4 0.060205312289675093 1 0.096097026036742014 1 0.13585493555421468 1 0.17559344690875989 1 0.2153131963774951 1 0.25501528377839749 1 0.29083106632997424 1 0.32276929078183114 1 0.35084230949771 1 0.37894356754333397 1 0.4043449306602116 1 0.42707204921063924 1 0.44718809179464775 1 0.46557345225457558 1 0.48320464042182448 1 0.50000000000000011 1 0.51679535957817579 1 0.53442654774542475 1 0.55281190820535253 1 0.5729279507893611 1 0.59565506933978851 1 0.6210564324566662 1 0.64915769050229011 1 0.67723070921816897 1 0.70916893367002587 1 0.74498471622160256 1 0.78468680362250509 1 0.82440655309124022 1 0.86414506444578543 1 0.90390297396325803 1 0.93979468771032504 1 1 4
1 0 0.99999999999999956 1 0 
Curves 6
7 0 0  1 2 2  35.268714157075131 -0.0020029200000000126 1.5913730061958737  36.946110906769093 -0.0020029199999996574 7.3964119195632829 
 0 2 0.99999999999999956 2
7 0 0  3 19 17  35.268714157075131 -0.0020029200000000126 1.5913730061958737  35.043870412027424 0.034591648564192994 1.60001063160723  34.846442875631851 0.057010571160059045 1.6075950325204511  34.150432374143094 0.13340667424010927 1.6343330589349929  33.643509403930445 0.18098106891804977 1.6538070751153406  33.096738744027711 0.22678709363146124 1.6748118851230989  32.549401169650238 0.2633135990112061 1.6958384737881731  32.043992219436234 0.28892280016456734 1.7152543271870264  31.487308441772299 0.29868508352496437 1.7366399607656682  31.215320438534157 0.29552521747763832 1.7470886858918901  30.920159553283668 0.28494949473831443 1.7584276233497105  30.66909876524285 0.26820060030010612 1.7680724059613697  30.391264360392423 0.23475433214882649 1.778745727182629  30.252829873740293 0.20925012587990244 1.7840638437237888  30.116231775227146 0.18044509449415211 1.7893114133486843  29.972720777511945 0.12837954141724658 1.7948245497733195  29.910194262412592 0.10317163801215094 1.797226576192116  29.838000000000001 0.032483193707755806 1.8000000000000003  29.838000000000001 -0.0020029199999993183 1.8000000000000003 
 0 4 0.060205312289675093 1 0.096097026036742014 1 0.13585493555421468 1 0.17559344690875989 1 0.2153131963774951 1 0.25501528377839749 1 0.29083106632997424 1 0.32276929078183114 1 0.35084230949771 1 0.37894356754333397 1 0.4043449306602116 1 0.42707204921063924 1 0.44718809179464775 1 0.46557345225457558 1 0.48320464042182448 1 0.50000000000000011 4
7 0 0  1 2 2  29.838000000000001 -0.0020029199999993183 1.8000000000000003  35.050788947954743 -0.0020029199999994146 7.4692228448157643 
 0 2 0.99999999999999956 2
8 0 0.50000000000000011
7 0 0  3 35 33  36.946110906769093 -0.0020029199999996574 7.3964119195632829  36.867640327216343 0.010768619946909272 7.3994264551548543  36.798738018204617 0.018592845692254563 7.4020734148694531  36.555830004841695 0.04525515981582455 7.4114049994701299  36.378913634529745 0.061858669733245754 7.4182014408635393  36.188090400572761 0.077845016816699419 7.4255321300688557  35.997069313180361 0.0905928026461751 7.4328704200364744  35.820681336605688 0.099530438704511059 7.439646562590033  35.626398419588668 0.10293748507237975 7.4471101594121834  35.531474470332427 0.10183468875495592 7.4507567697106731  35.428463173656191 0.098143751254332681 7.4547140645584298  35.340842832977593 0.092298370839233479 7.4580800985169748  35.243878486632624 0.080625590792112969 7.4618050929650401  35.195564781506548 0.071724598050351654 7.4636611182995463  35.14789197676005 0.061671614139098697 7.4654925227249684  35.097806566732238 0.043500685581404144 7.4674166100964126  35.075984781668929 0.034703102826704982 7.4682549185187526  35.038496890957589 -0.0020029199999993166 7.4696950580136621  35.075984781668929 -0.038708942826704493 7.4682549185187526  35.097806566732238 -0.047506525581403322 7.4674166100964126  35.14789197676005 -0.065677454139098021 7.4654925227249684  35.195564781506548 -0.075730438050350943 7.4636611182995463  35.243878486632624 -0.084631430792112258 7.4618050929650401  35.340842832977593 -0.096304210839232782 7.4580800985169748  35.428463173656191 -0.102149591254332 7.4547140645584298  35.531474470332427 -0.10584052875495524 7.4507567697106731  35.626398419588668 -0.10694332507237908 7.4471101594121834  35.820681336605688 -0.10353627870451036 7.439646562590033  35.997069313180361 -0.09459864264617443 7.4328704200364744  36.188090400572761 -0.081850856816698694 7.4255321300688557  36.378913634529745 -0.065864509733245133 7.4182014408635393  36.555830004841695 -0.049260999815823853 7.4114049994701299  36.798738018204617 -0.022598685692253886 7.4020734148694531  36.867640327216343 -0.014774459946908623 7.3994264551548543  36.946110906769093 -0.0020029199999996574 7.3964119195632829 
 0 4 0.060205312289675093 1 0.096097026036742014 1 0.13585493555421468 1 0.17559344690875989 1 0.2153131963774951 1 0.25501528377839749 1 0.29083106632997424 1 0.32276929078183114 1 0.35084230949771 1 0.37894356754333397 1 0.4043449306602116 1 0.42707204921063924 1 0.44718809179464775 1 0.46557345225457558 1 0.48320464042182448 1 0.50000000000000011 1 0.51679535957817579 1 0.53442654774542475 1 0.55281190820535253 1 0.5729279507893611 1 0.59565506933978851 1 0.6210564324566662 1 0.64915769050229011 1 0.67723070921816897 1 0.70916893367002587 1 0.74498471622160256 1 0.78468680362250509 1 0.82440655309124022 1 0.86414506444578543 1 0.90390297396325803 1 0.93979468771032504 1 1 4
7 0 0  3 19 17  29.838000000000001 -0.0020029199999993183 1.8000000000000003  29.838000000000001 -0.036489033707754547 1.8  29.910194262412592 -0.10717747801215155 1.797226576192116  29.972720777511945 -0.13238538141724621 1.7948245497733195  30.116231775227146 -0.18445093449415215 1.7893114133486843  30.252829873740293 -0.21325596587990234 1.7840638437237888  30.391264360392423 -0.23876017214882642 1.778745727182629  30.66909876524285 -0.2722064403001061 1.7680724059613697  30.920159553283668 -0.28895533473831447 1.7584276233497105  31.215320438534153 -0.29953105747763836 1.7470886858918901  31.487308441772299 -0.30269092352496446 1.736639960765668  32.043992219436227 -0.29292864016456732 1.7152543271870264  32.549401169650238 -0.26731943901120619 1.6958384737881731  33.096738744027711 -0.23079293363146114 1.6748118851230989  33.643509403930445 -0.18498690891804992 1.6538070751153406  34.150432374143094 -0.1374125142401092 1.6343330589349931  34.846442875631858 -0.061016411160059091 1.6075950325204509  35.043870412027424 -0.038597488564193129 1.60001063160723  35.268714157075131 -0.0020029200000000126 1.5913730061958737 
 0.50000000000000011 4 0.51679535957817579 1 0.53442654774542475 1 0.55281190820535253 1 0.5729279507893611 1 0.59565506933978851 1 0.6210564324566662 1 0.64915769050229011 1 0.67723070921816897 1 0.70916893367002587 1 0.74498471622160256 1 0.78468680362250509 1 0.82440655309124022 1 0.86414506444578543 1 0.90390297396325803 1 0.93979468771032504 1 1 4
8 0.50000000000000011 1
7 0 0  3 35 33  36.946110906769093 -0.0020029199999996574 7.3964119195632829  36.867640327216343 0.010768619946909272 7.3994264551548543  36.798738018204617 0.018592845692254563 7.4020734148694531  36.555830004841695 0.04525515981582455 7.4114049994701299  36.378913634529745 0.061858669733245754 7.4182014408635393  36.188090400572761 0.077845016816699419 7.4255321300688557  35.997069313180361 0.0905928026461751 7.4328704200364744  35.820681336605688 0.099530438704511059 7.439646562590033  35.626398419588668 0.10293748507237975 7.4471101594121834  35.531474470332427 0.10183468875495592 7.4507567697106731  35.428463173656191 0.098143751254332681 7.4547140645584298  35.340842832977593 0.092298370839233479 7.4580800985169748  35.243878486632624 0.080625590792112969 7.4618050929650401  35.195564781506548 0.071724598050351654 7.4636611182995463  35.14789197676005 0.061671614139098697 7.4654925227249684  35.097806566732238 0.043500685581404144 7.4674166100964126  35.075984781668929 0.034703102826704982 7.4682549185187526  35.038496890957589 -0.0020029199999993166 7.4696950580136621  35.075984781668929 -0.038708942826704493 7.4682549185187526  35.097806566732238 -0.047506525581403322 7.4674166100964126  35.14789197676005 -0.065677454139098021 7.4654925227249684  35.195564781506548 -0.075730438050350943 7.4636611182995463  35.243878486632624 -0.084631430792112258 7.4618050929650401  35.340842832977593 -0.096304210839232782 7.4580800985169748  35.428463173656191 -0.102149591254332 7.4547140645584298  35.531474470332427 -0.10584052875495524 7.4507567697106731  35.626398419588668 -0.10694332507237908 7.4471101594121834  35.820681336605688 -0.10353627870451036 7.439646562590033  35.997069313180361 -0.09459864264617443 7.4328704200364744  36.188090400572761 -0.081850856816698694 7.4255321300688557  36.378913634529745 -0.065864509733245133 7.4182014408635393  36.555830004841695 -0.049260999815823853 7.4114049994701299  36.798738018204617 -0.022598685692253886 7.4020734148694531  36.867640327216343 -0.014774459946908623 7.3994264551548543  36.946110906769093 -0.0020029199999996574 7.3964119195632829 
 0 4 0.060205312289675093 1 0.096097026036742014 1 0.13585493555421468 1 0.17559344690875989 1 0.2153131963774951 1 0.25501528377839749 1 0.29083106632997424 1 0.32276929078183114 1 0.35084230949771 1 0.37894356754333397 1 0.4043449306602116 1 0.42707204921063924 1 0.44718809179464775 1 0.46557345225457558 1 0.48320464042182448 1 0.50000000000000011 1 0.51679535957817579 1 0.53442654774542475 1 0.55281190820535253 1 0.5729279507893611 1 0.59565506933978851 1 0.6210564324566662 1 0.64915769050229011 1 0.67723070921816897 1 0.70916893367002587 1 0.74498471622160256 1 0.78468680362250509 1 0.82440655309124022 1 0.86414506444578543 1 0.90390297396325803 1 0.93979468771032504 1 1 4
Polygon3D 0
PolygonOnTriangulations 0
Surfaces 4
9 0 0 0 0 3 1 19 2 17 2 35.268714157075131 -0.0020029200000000126 1.5913730061958737  36.946110906769093 -0.0020029199999996574 7.3964119195632829  
35.043870412027424 0.034591648564192994 1.60001063160723  36.867640327216343 0.010768619946909272 7.3994264551548543  
34.846442875631851 0.057010571160059045 1.6075950325204511  36.798738018204617 0.018592845692254563 7.4020734148694531  
34.150432374143094 0.13340667424010927 1.6343330589349929  36.555830004841695 0.04525515981582455 7.4114049994701299  
33.643509403930445 0.18098106891804977 1.6538070751153406  36.378913634529745 0.061858669733245754 7.4182014408635393  
33.096738744027711 0.22678709363146124 1.6748118851230989  36.188090400572761 0.077845016816699419 7.4255321300688557  
32.549401169650238 0.2633135990112061 1.6958384737881731  35.997069313180361 0.0905928026461751 7.4328704200364744  
32.043992219436234 0.28892280016456734 1.7152543271870264  35.820681336605688 0.099530438704511059 7.439646562590033  
31.487308441772299 0.29868508352496437 1.7366399607656682  35.626398419588668 0.10293748507237975 7.4471101594121834  
31.215320438534157 0.29552521747763832 1.7470886858918901  35.531474470332427 0.10183468875495592 7.4507567697106731  
30.920159553283668 0.28494949473831443 1.7584276233497105  35.428463173656191 0.098143751254332681 7.4547140645584298  
30.66909876524285 0.26820060030010612 1.7680724059613697  35.340842832977593 0.092298370839233479 7.4580800985169748  
30.391264360392423 0.23475433214882649 1.778745727182629  35.243878486632624 0.080625590792112969 7.4618050929650401  
30.252829873740293 0.20925012587990244 1.7840638437237888  35.195564781506548 0.071724598050351654 7.4636611182995463  
30.116231775227146 0.18044509449415211 1.7893114133486843  35.14789197676005 0.061671614139098697 7.4654925227249684  
29.972720777511945 0.12837954141724658 1.7948245497733195  35.097806566732238 0.043500685581404144 7.4674166100964126  
29.910194262412592 0.10317163801215094 1.797226576192116  35.075984781668929 0.034703102826704982 7.4682549185187526  
29.838000000000001 0.032483193707755806 1.8000000000000003  35.050788947954743 0.010032767155585742 7.4692228448157643  
29.838000000000001 -0.0020029199999993183 1.8000000000000003  35.050788947954743 -0.0020029199999994146 7.4692228448157643  

0 4
0.060205312289675093 1
0.096097026036742014 1
0.13585493555421468 1
0.17559344690875989 1
0.2153131963774951 1
0.25501528377839749 1
0.29083106632997424 1
0.32276929078183114 1
0.35084230949771 1
0.37894356754333397 1
0.4043449306602116 1
0.42707204921063924 1
0.44718809179464775 1
0.46557345225457558 1
0.48320464042182448 1
0.50000000000000011 4

0 2
0.99999999999999956 2

9 0 0 0 0 3 1 19 2 17 2 29.838000000000001 -0.0020029199999993183 1.8000000000000003  35.050788947954743 -0.0020029199999994146 7.4692228448157643  
29.838000000000001 -0.036489033707754547 1.8  35.050788947954736 -0.014038607155584609 7.4692228448157634  
29.910194262412592 -0.10717747801215155 1.797226576192116  35.075984781668929 -0.038708942826704493 7.4682549185187526  
29.972720777511945 -0.13238538141724621 1.7948245497733195  35.097806566732238 -0.047506525581403322 7.4674166100964126  
30.116231775227146 -0.18445093449415215 1.7893114133486843  35.14789197676005 -0.065677454139098021 7.4654925227249684  
30.252829873740293 -0.21325596587990234 1.7840638437237888  35.195564781506548 -0.075730438050350943 7.4636611182995463  
30.391264360392423 -0.23876017214882642 1.778745727182629  35.243878486632624 -0.084631430792112258 7.4618050929650401  
30.66909876524285 -0.2722064403001061 1.7680724059613697  35.340842832977593 -0.096304210839232782 7.4580800985169748  
30.920159553283668 -0.28895533473831447 1.7584276233497105  35.428463173656191 -0.102149591254332 7.4547140645584298  
31.215320438534153 -0.29953105747763836 1.7470886858918901  35.531474470332427 -0.10584052875495524 7.4507567697106731  
31.487308441772299 -0.30269092352496446 1.736639960765668  35.626398419588668 -0.10694332507237908 7.4471101594121834  
32.043992219436227 -0.29292864016456732 1.7152543271870264  35.820681336605688 -0.10353627870451036 7.439646562590033  
32.549401169650238 -0.26731943901120619 1.6958384737881731  35.997069313180361 -0.09459864264617443 7.4328704200364744  
33.096738744027711 -0.23079293363146114 1.6748118851230989  36.188090400572761 -0.081850856816698694 7.4255321300688557  
33.643509403930445 -0.18498690891804992 1.6538070751153406  36.378913634529745 -0.065864509733245133 7.4182014408635393  
34.150432374143094 -0.1374125142401092 1.6343330589349931  36.555830004841695 -0.049260999815823853 7.4114049994701299  
34.846442875631858 -0.061016411160059091 1.6075950325204509  36.798738018204617 -0.022598685692253886 7.4020734148694531  
35.043870412027424 -0.038597488564193129 1.60001063160723  36.867640327216343 -0.014774459946908623 7.3994264551548543  
35.268714157075131 -0.0020029200000000126 1.5913730061958737  36.946110906769093 -0.0020029199999996574 7.3964119195632829  

0.50000000000000011 4
0.51679535957817579 1
0.53442654774542475 1
0.55281190820535253 1
0.5729279507893611 1
0.59565506933978851 1
0.6210564324566662 1
0.64915769050229011 1
0.67723070921816897 1
0.70916893367002587 1
0.74498471622160256 1
0.78468680362250509 1
0.82440655309124022 1
0.86414506444578543 1
0.90390297396325803 1
0.93979468771032504 1
1 4

0 2
0.99999999999999956 2

1 35.268714157075131 -0.0020029200000000126 1.5913730061958737 0.038387809087519979 -1.516270982395607e-15 0.99926291641062115 -0.99926291641062115 1.2775691687147031e-16 0.038387809087519979 -1.8586907034176365e-16 -1 -1.5102490558029596e-15 
1 36.946110906769093 -0.0020029199999996574 7.3964119195632829 0.038387809087520285 -6.6547359642281285e-15 0.99926291641062115 -0.99926291641062115 1.2804277206796652e-16 0.038387809087520285 -3.8340912756458124e-16 -1 -6.6449155860680647e-15 
Triangulations 0

TShapes 20
Ve
5.9758e-07
35.2687141570751 -0.00200292000000001 1.59137300619587
0 0

0101101
*
Ve
2.08556e-07
36.9461109067691 -0.00200291999999966 7.39641191956328
0 0

0101101
*
Ed
 1e-07 1 1 0
1  1 0 0 1
2  1 1 0 0 1
2  2 2 0 0 1
4 C0 1 0 2 0
0

0101000
+20 0 -19 0 *
Ve
5.9758e-07
29.838 -0.00200291999999931 1.8
0 0

0101101
*
Ed
 1e-07 1 1 0
1  2 0 0 0.5
2  3 1 0 0 0.5
2  4 3 0 0 0.5
4 C0 1 0 3 0
0

0101000
+20 0 -17 0 *
Ve
2.08556e-07
35.0507889479547 -0.00200291999999941 7.46922284481576
0 0

0101101
*
Ed
 1e-07 1 1 0
1  3 0 0 1
2  5 1 0 0 1
2  6 2 0 0 1
4 G2 1 0 2 0
0

0101000
+17 0 -15 0 *
Ed
 1e-07 1 1 0
1  4 0 0 0.5
2  7 4 0 0 0.5
2  8 1 0 0 0.5
4 C0 1 0 4 0
0

0101000
+19 0 -15 0 *
Wi

0101100
-18 0 +16 0 +14 0 -13 0 *
Fa
1  1e-07 1 0

0111000
+12 0 *
Ed
 1e-07 1 1 0
1  5 0 0.5 1
2  9 2 0 0.5 1
2  10 3 0 0.5 1
4 C0 2 0 3 0
0

0101000
+17 0 -20 0 *
Ed
 1e-07 1 1 0
1  6 0 0.5 1
2  11 4 0 0.5 1
2  12 2 0 0.5 1
4 C0 2 0 4 0
0

0101000
+15 0 -19 0 *
Wi

0101100
-14 0 +10 0 +18 0 -9 0 *
Fa
1  1e-07 2 0

0101000
+8 0 *
Wi

0101100
+16 0 +10 0 *
Fa
0  1e-07 3 0

0101000
+6 0 *
Wi

0101100
+13 0 +9 0 *
Fa
0  1e-07 4 0

0101000
+4 0 *
Sh

0101100
+11 0 +7 0 -5 0 +3 0 *
So

1100000
+2 0 *

+1 0 