DBRep_DrawableShape

CASCADE Topology V1, (c) Matra-Datavision
Locations 0
Curve2ds 8
1 0 0 0 1 
1 1 0 0 1 
1 0 0 1 0 
1 0.50000000000000011 0 0 1 
1 0.50000000000000011 0 0 1 
1 0 0.99999999999999956 1 0 
1 0 0 1 0 
1 0 0.99999999999999956 1 0 
Curves 6
7 0 0  1 2 2  35.210029999999996 0 0.69713700000000001  36.63835916725958 -6.2249490381876331 1.241749471868022 
 0 2 0.99999999999999956 2
8 0 0.50000000000000011
7 0 0  3 35 33  35.210029999999996 0 0.69713700000000001  35.055006340948147 0 0.67421667986560485  34.918885413576383 0 0.66017500911700466  34.439005065308706 0 0.61232574600727796  34.08949543726402 0 0.58252841817963386  33.712511908803698 0 0.55383867563836775  33.33513750820137 0 0.53096098560013516  32.986671755849194 0 0.51492114384625531  32.60285340177419 0 0.50880672116982784  32.415325056383764 0 0.51078584387104164  32.211819637850525 0 0.51740974901184689  32.038720039290332 0 0.52790010420615707  31.847160758682957 0 0.54884854555704798  31.751713937801973 0 0.56482262573870023  31.657533256695899 0 0.5828641156850719  31.558586319233743 0 0.61547439615343336  31.515475984292443 0 0.63126289260607471  31.441416253609528 0 0.69713699999999945  31.515475984292443 0 0.76301110739392575  31.558586319233743 0 0.77879960384656644  31.657533256695899 0 0.81140988431492811  31.751713937801973 0 0.82945137426129978  31.847160758682953 0 0.84542545444295192  32.038720039290332 0 0.86637389579384283  32.211819637850525 0 0.87686425098815313  32.415325056383764 0 0.88348815612895837  32.602853401774198 0 0.88546727883017218  32.986671755849194 0 0.8793528561537447  33.335137508201377 0 0.86331301439986496  33.712511908803698 0 0.84043532436163226  34.089495437264027 0 0.81174558182036627  34.439005065308706 0 0.78194825399272194  34.918885413576383 0 0.73409899088299546  35.055006340948147 0 0.72005732013439527  35.210029999999996 0 0.69713700000000001 
 0 4 0.060205312289675093 1 0.096097026036742014 1 0.13585493555421468 1 0.17559344690875989 1 0.2153131963774951 1 0.25501528377839749 1 0.29083106632997424 1 0.32276929078183114 1 0.35084230949771 1 0.37894356754333397 1 0.4043449306602116 1 0.42707204921063924 1 0.44718809179464775 1 0.46557345225457558 1 0.48320464042182448 1 0.50000000000000011 1 0.51679535957817579 1 0.53442654774542475 1 0.55281190820535253 1 0.5729279507893611 1 0.59565506933978851 1 0.6210564324566662 1 0.64915769050229011 1 0.67723070921816897 1 0.70916893367002587 1 0.74498471622160256 1 0.78468680362250509 1 0.82440655309124022 1 0.86414506444578543 1 0.90390297396325803 1 0.93979468771032504 1 1 4
7 0 0  1 2 2  31.465699999999998 0 0.69713699999999967  35.402729167259579 -6.2249490381876331 1.241749471868022 
 0 2 0.99999999999999956 2
7 0 0  3 19 17  36.63835916725958 -6.2249490381876331 1.241749471868022  36.587201314230001 -6.2249490381876331 1.2341857288685278  36.542281368208052 -6.2249490381876331 1.229551954636616  36.383920712301659 -6.2249490381876331 1.2137616198264998  36.268582432368838 -6.2249490381876331 1.2039284530802044  36.144177757227645 -6.2249490381876331 1.1944607912835374  36.019644094164761 -6.2249490381876331 1.1869111162852546  35.904650293517136 -6.2249490381876331 1.1816179423650159  35.777990123915174 -6.2249490381876331 1.1796001729166139  35.716105714844723 -6.2249490381876331 1.1802532866335547  35.648948866943435 -6.2249490381876331 1.182439186125547  35.591825948565798 -6.2249490381876331 1.18590102043667  35.528611329689554 -6.2249490381876331 1.1928140402238736  35.497113850758694 -6.2249490381876331 1.1980855127181003  35.466034198325524 -6.2249490381876331 1.204039233804113  35.43338167989463 -6.2249490381876331 1.2148006795063468  35.419155256699149 -6.2249490381876331 1.2200109090675386  35.402729167259579 -6.2249490381876331 1.2346215260724804  35.402729167259579 -6.2249490381876331 1.241749471868022 
 0 4 0.060205312289675093 1 0.096097026036742014 1 0.13585493555421468 1 0.17559344690875989 1 0.2153131963774951 1 0.25501528377839749 1 0.29083106632997424 1 0.32276929078183114 1 0.35084230949771 1 0.37894356754333397 1 0.4043449306602116 1 0.42707204921063924 1 0.44718809179464775 1 0.46557345225457558 1 0.48320464042182448 1 0.50000000000000011 4
8 0.50000000000000011 1
7 0 0  3 35 33  35.210029999999996 0 0.69713700000000001  35.055006340948147 0 0.67421667986560485  34.918885413576383 0 0.66017500911700466  34.439005065308706 0 0.61232574600727796  34.08949543726402 0 0.58252841817963386  33.712511908803698 0 0.55383867563836775  33.33513750820137 0 0.53096098560013516  32.986671755849194 0 0.51492114384625531  32.60285340177419 0 0.50880672116982784  32.415325056383764 0 0.51078584387104164  32.211819637850525 0 0.51740974901184689  32.038720039290332 0 0.52790010420615707  31.847160758682957 0 0.54884854555704798  31.751713937801973 0 0.56482262573870023  31.657533256695899 0 0.5828641156850719  31.558586319233743 0 0.61547439615343336  31.515475984292443 0 0.63126289260607471  31.441416253609528 0 0.69713699999999945  31.515475984292443 0 0.76301110739392575  31.558586319233743 0 0.77879960384656644  31.657533256695899 0 0.81140988431492811  31.751713937801973 0 0.82945137426129978  31.847160758682953 0 0.84542545444295192  32.038720039290332 0 0.86637389579384283  32.211819637850525 0 0.87686425098815313  32.415325056383764 0 0.88348815612895837  32.602853401774198 0 0.88546727883017218  32.986671755849194 0 0.8793528561537447  33.335137508201377 0 0.86331301439986496  33.712511908803698 0 0.84043532436163226  34.089495437264027 0 0.81174558182036627  34.439005065308706 0 0.78194825399272194  34.918885413576383 0 0.73409899088299546  35.055006340948147 0 0.72005732013439527  35.210029999999996 0 0.69713700000000001 
 0 4 0.060205312289675093 1 0.096097026036742014 1 0.13585493555421468 1 0.17559344690875989 1 0.2153131963774951 1 0.25501528377839749 1 0.29083106632997424 1 0.32276929078183114 1 0.35084230949771 1 0.37894356754333397 1 0.4043449306602116 1 0.42707204921063924 1 0.44718809179464775 1 0.46557345225457558 1 0.48320464042182448 1 0.50000000000000011 1 0.51679535957817579 1 0.53442654774542475 1 0.55281190820535253 1 0.5729279507893611 1 0.59565506933978851 1 0.6210564324566662 1 0.64915769050229011 1 0.67723070921816897 1 0.70916893367002587 1 0.74498471622160256 1 0.78468680362250509 1 0.82440655309124022 1 0.86414506444578543 1 0.90390297396325803 1 0.93979468771032504 1 1 4
8 0.50000000000000011 1
7 0 0  3 35 33  36.63835916725958 -6.2249490381876331 1.241749471868022  36.587201314230001 -6.2249490381876331 1.2341857288685278  36.542281368208052 -6.2249490381876331 1.229551954636616  36.383920712301659 -6.2249490381876331 1.2137616198264998  36.268582432368838 -6.2249490381876331 1.2039284530802044  36.144177757227645 -6.2249490381876331 1.1944607912835374  36.019644094164761 -6.2249490381876331 1.1869111162852546  35.904650293517136 -6.2249490381876331 1.1816179423650159  35.777990123915174 -6.2249490381876331 1.1796001729166139  35.716105714844723 -6.2249490381876331 1.1802532866335547  35.648948866943435 -6.2249490381876331 1.182439186125547  35.591825948565798 -6.2249490381876331 1.18590102043667  35.528611329689554 -6.2249490381876331 1.1928140402238736  35.497113850758694 -6.2249490381876331 1.1980855127181003  35.466034198325524 -6.2249490381876331 1.204039233804113  35.43338167989463 -6.2249490381876331 1.2148006795063468  35.419155256699149 -6.2249490381876331 1.2200109090675386  35.394715523816707 -6.2249490381876331 1.2417494718680218  35.419155256699149 -6.2249490381876331 1.2634880346685053  35.43338167989463 -6.2249490381876331 1.2686982642296969  35.466034198325524 -6.2249490381876331 1.2794597099319309  35.497113850758694 -6.2249490381876331 1.2854134310179437  35.528611329689554 -6.2249490381876331 1.2906849035121704  35.591825948565798 -6.2249490381876331 1.297597923299374  35.648948866943435 -6.2249490381876331 1.301059757610497  35.716105714844723 -6.2249490381876331 1.3032456571024893  35.777990123915174 -6.2249490381876331 1.3038987708194301  35.904650293517129 -6.2249490381876331 1.301881001371028  36.019644094164761 -6.2249490381876331 1.2965878274507894  36.144177757227645 -6.2249490381876331 1.2890381524525065  36.268582432368838 -6.2249490381876331 1.2795704906558396  36.383920712301659 -6.2249490381876331 1.2697373239095442  36.542281368208052 -6.2249490381876331 1.2539469890994279  36.587201314230001 -6.2249490381876331 1.2493132148675161  36.63835916725958 -6.2249490381876331 1.241749471868022 
 0 4 0.060205312289675093 1 0.096097026036742014 1 0.13585493555421468 1 0.17559344690875989 1 0.2153131963774951 1 0.25501528377839749 1 0.29083106632997424 1 0.32276929078183114 1 0.35084230949771 1 0.37894356754333397 1 0.4043449306602116 1 0.42707204921063924 1 0.44718809179464775 1 0.46557345225457558 1 0.48320464042182448 1 0.50000000000000011 1 0.51679535957817579 1 0.53442654774542475 1 0.55281190820535253 1 0.5729279507893611 1 0.59565506933978851 1 0.6210564324566662 1 0.64915769050229011 1 0.67723070921816897 1 0.70916893367002587 1 0.74498471622160256 1 0.78468680362250509 1 0.82440655309124022 1 0.86414506444578543 1 0.90390297396325803 1 0.93979468771032504 1 1 4
Polygon3D 0
PolygonOnTriangulations 0
Surfaces 4
9 0 0 0 0 3 1 19 2 17 2 35.210029999999996 0 0.69713700000000001  36.63835916725958 -6.2249490381876331 1.241749471868022  
35.055006340948147 0 0.67421667986560485  36.587201314230001 -6.2249490381876331 1.2341857288685278  
34.918885413576383 0 0.66017500911700466  36.542281368208052 -6.2249490381876331 1.229551954636616  
34.439005065308706 0 0.61232574600727796  36.383920712301659 -6.2249490381876331 1.2137616198264998  
34.08949543726402 0 0.58252841817963386  36.268582432368838 -6.2249490381876331 1.2039284530802044  
33.712511908803698 0 0.55383867563836775  36.144177757227645 -6.2249490381876331 1.1944607912835374  
33.33513750820137 0 0.53096098560013516  36.019644094164761 -6.2249490381876331 1.1869111162852546  
32.986671755849194 0 0.51492114384625531  35.904650293517136 -6.2249490381876331 1.1816179423650159  
32.60285340177419 0 0.50880672116982784  35.777990123915174 -6.2249490381876331 1.1796001729166139  
32.415325056383764 0 0.51078584387104164  35.716105714844723 -6.2249490381876331 1.1802532866335547  
32.211819637850525 0 0.51740974901184689  35.648948866943435 -6.2249490381876331 1.182439186125547  
32.038720039290332 0 0.52790010420615707  35.591825948565798 -6.2249490381876331 1.18590102043667  
31.847160758682957 0 0.54884854555704798  35.528611329689554 -6.2249490381876331 1.1928140402238736  
31.751713937801973 0 0.56482262573870023  35.497113850758694 -6.2249490381876331 1.1980855127181003  
31.657533256695899 0 0.5828641156850719  35.466034198325524 -6.2249490381876331 1.204039233804113  
31.558586319233743 0 0.61547439615343336  35.43338167989463 -6.2249490381876331 1.2148006795063468  
31.515475984292443 0 0.63126289260607471  35.419155256699149 -6.2249490381876331 1.2200109090675386  
31.465699999999998 0 0.67553727093128968  35.402729167259579 -6.2249490381876331 1.2346215260724804  
31.465699999999998 0 0.69713699999999967  35.402729167259579 -6.2249490381876331 1.241749471868022  

0 4
0.060205312289675093 1
0.096097026036742014 1
0.13585493555421468 1
0.17559344690875989 1
0.2153131963774951 1
0.25501528377839749 1
0.29083106632997424 1
0.32276929078183114 1
0.35084230949771 1
0.37894356754333397 1
0.4043449306602116 1
0.42707204921063924 1
0.44718809179464775 1
0.46557345225457558 1
0.48320464042182448 1
0.50000000000000011 4

0 2
0.99999999999999956 2

9 0 0 0 0 3 1 19 2 17 2 31.465699999999998 0 0.69713699999999967  35.402729167259579 -6.2249490381876331 1.241749471868022  
31.465699999999998 0 0.71873672906870967  35.402729167259579 -6.2249490381876331 1.2488774176635633  
31.515475984292443 0 0.76301110739392575  35.419155256699149 -6.2249490381876331 1.2634880346685053  
31.558586319233743 0 0.77879960384656644  35.43338167989463 -6.2249490381876331 1.2686982642296969  
31.657533256695899 0 0.81140988431492811  35.466034198325524 -6.2249490381876331 1.2794597099319309  
31.751713937801973 0 0.82945137426129978  35.497113850758694 -6.2249490381876331 1.2854134310179437  
31.847160758682953 0 0.84542545444295192  35.528611329689554 -6.2249490381876331 1.2906849035121704  
32.038720039290332 0 0.86637389579384283  35.591825948565798 -6.2249490381876331 1.297597923299374  
32.211819637850525 0 0.87686425098815313  35.648948866943435 -6.2249490381876331 1.301059757610497  
32.415325056383764 0 0.88348815612895837  35.716105714844723 -6.2249490381876331 1.3032456571024893  
32.602853401774198 0 0.88546727883017218  35.777990123915174 -6.2249490381876331 1.3038987708194301  
32.986671755849194 0 0.8793528561537447  35.904650293517129 -6.2249490381876331 1.301881001371028  
33.335137508201377 0 0.86331301439986496  36.019644094164761 -6.2249490381876331 1.2965878274507894  
33.712511908803698 0 0.84043532436163226  36.144177757227645 -6.2249490381876331 1.2890381524525065  
34.089495437264027 0 0.81174558182036627  36.268582432368838 -6.2249490381876331 1.2795704906558396  
34.439005065308706 0 0.78194825399272194  36.383920712301659 -6.2249490381876331 1.2697373239095442  
34.918885413576383 0 0.73409899088299546  36.542281368208052 -6.2249490381876331 1.2539469890994279  
35.055006340948147 0 0.72005732013439527  36.587201314230001 -6.2249490381876331 1.2493132148675161  
35.210029999999996 0 0.69713700000000001  36.63835916725958 -6.2249490381876331 1.241749471868022  

0.50000000000000011 4
0.51679535957817579 1
0.53442654774542475 1
0.55281190820535253 1
0.5729279507893611 1
0.59565506933978851 1
0.6210564324566662 1
0.64915769050229011 1
0.67723070921816897 1
0.70916893367002587 1
0.74498471622160256 1
0.78468680362250509 1
0.82440655309124022 1
0.86414506444578543 1
0.90390297396325803 1
0.93979468771032504 1
1 4

0 2
0.99999999999999956 2

1 35.210029999999996 0 0.69713700000000001 -0 -1 -0 -1 -0 -8.8952337904924824e-17 -8.8952337904924824e-17 -0 1 
1 36.63835916725958 -6.2249490381876331 1.241749471868022 -0 1 -0 -1 -0 -0 -0 -0 -1 
Triangulations 0

TShapes 20
Ve
3.74433e-07
35.21003 0 0.697137
0 0

0101101
*
Ve
1.23563e-07
36.6383591672596 -6.22494903818763 1.24174947186802
0 0

0101101
*
Ed
 1e-07 1 1 0
1  1 0 0 1
2  1 1 0 0 1
2  2 2 0 0 1
0

0101000
+20 0 -19 0 *
Ve
3.74433e-07
31.4657 0 0.697137
0 0

0101101
*
Ed
 1e-07 1 1 0
1  2 0 0 0.5
2  3 1 0 0 0.5
0

0101000
+20 0 -17 0 *
Ve
1.23563e-07
35.4027291672596 -6.22494903818763 1.24174947186802
0 0

0101101
*
Ed
 1e-07 1 1 0
1  3 0 0 1
2  4 1 0 0 1
2  5 2 0 0 1
4 C2 1 0 2 0
0

0101000
+17 0 -15 0 *
Ed
 1e-07 1 1 0
1  4 0 0 0.5
2  6 1 0 0 0.5
0

0101000
+19 0 -15 0 *
Wi

0101100
-18 0 +16 0 +14 0 -13 0 *
Fa
1  1e-07 1 0

0111000
+12 0 *
Ed
 1e-07 1 1 0
1  5 0 0.5 1
2  7 2 0 0.5 1
0

0101000
+17 0 -20 0 *
Ed
 1e-07 1 1 0
1  6 0 0.5 1
2  8 2 0 0.5 1
0

0101000
+15 0 -19 0 *
Wi

0101100
-14 0 +10 0 +18 0 -9 0 *
Fa
1  1e-07 2 0

0101000
+8 0 *
Wi

0101100
+16 0 +10 0 *
Fa
0  1e-07 3 0

0101000
+6 0 *
Wi

0101100
+13 0 +9 0 *
Fa
0  1e-07 4 0

0101000
-4 0 *
Sh

0101100
-11 0 -7 0 +5 0 +3 0 *
So

1100000
+2 0 *

+1 0 