DBRep_DrawableShape

CASCADE Topology V1, (c) Matra-Datavision
Locations 0
Curve2ds 24
1 0 0 0 1 
1 1 0 0 1 
1 0 0 1 0 
1 0.50015032173438878 0 0 1 
1 0.50015032173438878 0 0 1 
1 0 0.19628881151362801 1 0 
1 0 0.19628881151362801 1 0 
1 0 0 1 0 
1 0 0.19628881151362801 1 0 
1 0 0.19628881151362801 1 0 
1 0 0 0 1 
1 1 0 0 1 
1 0.50015032173438878 0 0 1 
1 0.50015032173438878 0 0 1 
1 0 0.5098581888730972 1 0 
1 0 0.5098581888730972 1 0 
1 0 0.5098581888730972 1 0 
1 0 0.5098581888730972 1 0 
1 0 0 0 1 
1 1 0 0 1 
1 0.50015032173438878 0 0 1 
1 0.50015032173438878 0 0 1 
1 0 1.0000000000000004 1 0 
1 0 1.0000000000000004 1 0 
Curves 14
7 0 0  1 2 2  18.817618835536461 0 -1.3483195701053192  18.817618835536461 -1.85623 -1.3483195701053192 
 0 2 0.19628881151362801 2
8 0 0.50015032173438878
7 0 0  3 39 37  18.817618835536461 0 -1.3483195701053192  18.792216751791948 0 -1.3496147309736855  18.66690053744906 0 -1.3554711786944984  18.431413697335913 0 -1.3712496266285317  18.157189393527684 0 -1.3975726461430049  17.818414058675749 0 -1.4411972902561148  17.423294073428465 0 -1.5048325789787687  16.983044361806719 0 -1.5767461411005015  16.509608519816904 0 -1.6473450377009613  16.015954526213267 0 -1.7026058354668085  15.515875107114715 0 -1.7342656842235984  15.0233792529725 0 -1.7419741645554527  14.551864033285366 0 -1.728279859245301  14.114111093187212 0 -1.6946792706937139  13.721610305876521 0 -1.6433672638686905  13.384917402526934 0 -1.5756571047086738  13.110623544061484 0 -1.4954476819445297  12.911055858589433 0 -1.3826577567295717  12.773547759362737 0 -1.2747302367854079  12.730087078793792 0 -1.1358458410960839  12.782803339241287 0 -0.97961446421684228  12.923954313906171 0 -0.87660172209119014  13.136416167063592 0 -0.80917621224614211  13.414180695219132 0 -0.7777191255874214  13.753362836145282 0 -0.76730297078205634  14.146866278830537 0 -0.77640681674428125  14.584461504541093 0 -0.8035894926208913  15.054696621780669 0 -0.84100961992063616  15.544881550988924 0 -0.88581154653908345  16.041740358262988 0 -0.93518395246548225  16.531718025749438 0 -0.98768246796099346  17.001440577159254 0 -1.042728271327328  17.437881272923434 0 -1.1010270314832145  17.829237857486994 0 -1.1609772369077205  18.164304612817308 0 -1.2187979521855234  18.435378751646191 0 -1.2702985401840898  18.668518991356201 0 -1.3172771545914554  18.79303386665304 0 -1.3388454662918157  18.817618835536461 0 -1.3483195701053192 
 0 4 0.02780195088437537 1 0.048716740374543661 1 0.07333561152143038 1 0.10086558805461283 1 0.13067191591670768 1 0.16217404578367203 1 0.1948137328206202 1 0.22807431070012299 1 0.26148378946948309 1 0.29460474533602143 1 0.32700948604485641 1 0.35826169974457134 1 0.38791056353184311 1 0.41550517089045719 1 0.44065720419815069 1 0.46290903710445264 1 0.48243310418721835 1 0.50053164531246486 1 0.51867591953146874 1 0.53845631288925577 1 0.56048066680890163 1 0.58530592792991465 1 0.6127209367833959 1 0.6422892370589306 1 0.67351953292973621 1 0.70592729478751659 1 0.73903912975604269 1 0.77239045220375369 1 0.80552181308943915 1 0.83797326442377729 1 0.86927513670512191 1 0.89893251706572741 1 0.92640101771309757 1 0.95104029733716622 1 0.97201746732508865 1 1 4
7 0 0  1 2 2  12.7456 0 -1.1362799999999997  12.7456 -1.85623 -1.1362799999999997 
 0 2 0.19628881151362801 2
7 0 0  3 21 19  18.817618835536461 -1.85623 -1.3483195701053192  18.792216751791948 -1.85623 -1.3496147309736855  18.66690053744906 -1.85623 -1.3554711786944984  18.431413697335913 -1.85623 -1.3712496266285317  18.157189393527684 -1.85623 -1.3975726461430049  17.818414058675749 -1.85623 -1.4411972902561148  17.423294073428465 -1.85623 -1.5048325789787687  16.983044361806719 -1.85623 -1.5767461411005015  16.509608519816904 -1.85623 -1.6473450377009613  16.015954526213267 -1.85623 -1.7026058354668085  15.515875107114715 -1.85623 -1.7342656842235984  15.0233792529725 -1.85623 -1.7419741645554527  14.551864033285366 -1.85623 -1.728279859245301  14.114111093187212 -1.85623 -1.6946792706937139  13.721610305876521 -1.85623 -1.6433672638686905  13.384917402526934 -1.85623 -1.5756571047086738  13.110623544061484 -1.85623 -1.4954476819445297  12.911055858589433 -1.85623 -1.3826577567295717  12.774423510007514 -1.85623 -1.2754175969897297  12.744827631955378 -1.85623 -1.1829298446072154  12.7456 -1.85623 -1.1362799999999997 
 0 4 0.02780195088437537 1 0.048716740374543661 1 0.07333561152143038 1 0.10086558805461283 1 0.13067191591670768 1 0.16217404578367203 1 0.1948137328206202 1 0.22807431070012299 1 0.26148378946948309 1 0.29460474533602143 1 0.32700948604485641 1 0.35826169974457134 1 0.38791056353184311 1 0.41550517089045719 1 0.44065720419815069 1 0.46290903710445264 1 0.48243310418721835 1 0.50015032173438878 4
8 0.50015032173438878 1
7 0 0  3 39 37  18.817618835536461 0 -1.3483195701053192  18.792216751791948 0 -1.3496147309736855  18.66690053744906 0 -1.3554711786944984  18.431413697335913 0 -1.3712496266285317  18.157189393527684 0 -1.3975726461430049  17.818414058675749 0 -1.4411972902561148  17.423294073428465 0 -1.5048325789787687  16.983044361806719 0 -1.5767461411005015  16.509608519816904 0 -1.6473450377009613  16.015954526213267 0 -1.7026058354668085  15.515875107114715 0 -1.7342656842235984  15.0233792529725 0 -1.7419741645554527  14.551864033285366 0 -1.728279859245301  14.114111093187212 0 -1.6946792706937139  13.721610305876521 0 -1.6433672638686905  13.384917402526934 0 -1.5756571047086738  13.110623544061484 0 -1.4954476819445297  12.911055858589433 0 -1.3826577567295717  12.773547759362737 0 -1.2747302367854079  12.730087078793792 0 -1.1358458410960839  12.782803339241287 0 -0.97961446421684228  12.923954313906171 0 -0.87660172209119014  13.136416167063592 0 -0.80917621224614211  13.414180695219132 0 -0.7777191255874214  13.753362836145282 0 -0.76730297078205634  14.146866278830537 0 -0.77640681674428125  14.584461504541093 0 -0.8035894926208913  15.054696621780669 0 -0.84100961992063616  15.544881550988924 0 -0.88581154653908345  16.041740358262988 0 -0.93518395246548225  16.531718025749438 0 -0.98768246796099346  17.001440577159254 0 -1.042728271327328  17.437881272923434 0 -1.1010270314832145  17.829237857486994 0 -1.1609772369077205  18.164304612817308 0 -1.2187979521855234  18.435378751646191 0 -1.2702985401840898  18.668518991356201 0 -1.3172771545914554  18.79303386665304 0 -1.3388454662918157  18.817618835536461 0 -1.3483195701053192 
 0 4 0.02780195088437537 1 0.048716740374543661 1 0.07333561152143038 1 0.10086558805461283 1 0.13067191591670768 1 0.16217404578367203 1 0.1948137328206202 1 0.22807431070012299 1 0.26148378946948309 1 0.29460474533602143 1 0.32700948604485641 1 0.35826169974457134 1 0.38791056353184311 1 0.41550517089045719 1 0.44065720419815069 1 0.46290903710445264 1 0.48243310418721835 1 0.50053164531246486 1 0.51867591953146874 1 0.53845631288925577 1 0.56048066680890163 1 0.58530592792991465 1 0.6127209367833959 1 0.6422892370589306 1 0.67351953292973621 1 0.70592729478751659 1 0.73903912975604269 1 0.77239045220375369 1 0.80552181308943915 1 0.83797326442377729 1 0.86927513670512191 1 0.89893251706572741 1 0.92640101771309757 1 0.95104029733716622 1 0.97201746732508865 1 1 4
7 0 0  3 22 20  12.7456 -1.85623 -1.1362799999999997  12.745616623498897 -1.85623 -1.1352759661772533  12.746758481168994 -1.85623 -1.0864380089494965  12.782803339241287 -1.85623 -0.97961446421684228  12.923954313906171 -1.85623 -0.87660172209119014  13.136416167063592 -1.85623 -0.80917621224614211  13.414180695219132 -1.85623 -0.7777191255874214  13.753362836145282 -1.85623 -0.76730297078205634  14.146866278830537 -1.85623 -0.77640681674428125  14.584461504541093 -1.85623 -0.8035894926208913  15.054696621780669 -1.85623 -0.84100961992063616  15.544881550988924 -1.85623 -0.88581154653908345  16.041740358262988 -1.85623 -0.93518395246548225  16.531718025749438 -1.85623 -0.98768246796099346  17.001440577159254 -1.85623 -1.042728271327328  17.437881272923434 -1.85623 -1.1010270314832145  17.829237857486994 -1.85623 -1.1609772369077205  18.164304612817308 -1.85623 -1.2187979521855234  18.435378751646191 -1.85623 -1.2702985401840898  18.668518991356201 -1.85623 -1.3172771545914554  18.79303386665304 -1.85623 -1.3388454662918157  18.817618835536461 -1.85623 -1.3483195701053192 
 0.50015032173438878 4 0.50053164531246486 1 0.51867591953146874 1 0.53845631288925577 1 0.56048066680890163 1 0.58530592792991465 1 0.6127209367833959 1 0.6422892370589306 1 0.67351953292973621 1 0.70592729478751659 1 0.73903912975604269 1 0.77239045220375369 1 0.80552181308943915 1 0.83797326442377729 1 0.86927513670512191 1 0.89893251706572741 1 0.92640101771309757 1 0.95104029733716622 1 0.97201746732508865 1 1 4
7 0 0  1 2 2  18.817618835536461 -1.85623 -1.3483195701053192  18.836425843008172 -6.3331921462774696 -0.95705414203945438 
 0.19628881151362801 2 0.5098581888730972 2
7 0 0  1 2 2  12.7456 -1.85623 -1.1362799999999997  15.080275383106521 -6.3331921462774696 -0.82588647765290668 
 0.19628881151362801 2 0.5098581888730972 2
7 0 0  3 21 19  18.836425843008172 -6.3331921462774696 -0.95705414203945438  18.820722682114702 -6.3331921462774696 -0.95755274430162107  18.743251626926853 -6.3331921462774696 -0.95975670435125404  18.597695701412114 -6.3331921462774696 -0.96618918636458839  18.428234391003475 -6.3331921462774696 -0.97749487246171074  18.218936507528582 -6.3331921462774696 -0.99679175919841767  17.974890247189158 -6.3331921462774696 -1.0254197526036046  17.702974455956465 -6.3331921462774696 -1.0578023085715254  17.410528972319746 -6.3331921462774696 -1.0893932128437962  17.105505691885604 -6.3331921462774696 -1.1135248347819506  16.796394452629656 -6.3331921462774696 -1.1262982780532607  16.491857149620689 -6.3331921462774696 -1.1276131945046743  16.200191284312012 -6.3331921462774696 -1.1187576234284118  15.929308666497048 -6.3331921462774696 -1.1005116875330434  15.68632561587939 -6.3331921462774696 -1.0739844275989154  15.477776481153423 -6.3331921462774696 -1.0398572455831308  15.307756318248634 -6.3331921462774696 -1.0000332934504228  15.183791368634459 -6.3331921462774696 -0.94493444744389277  15.098774445058195 -6.3331921462774696 -0.89280389961729678  15.080023608786874 -6.3331921462774714 -0.84827191723829198  15.080275383106521 -6.3331921462774696 -0.82588647765290668 
 0 4 0.02780195088437537 1 0.048716740374543661 1 0.07333561152143038 1 0.10086558805461283 1 0.13067191591670768 1 0.16217404578367203 1 0.1948137328206202 1 0.22807431070012299 1 0.26148378946948309 1 0.29460474533602143 1 0.32700948604485641 1 0.35826169974457134 1 0.38791056353184311 1 0.41550517089045719 1 0.44065720419815069 1 0.46290903710445264 1 0.48243310418721835 1 0.50015032173438878 4
7 0 0  3 22 20  15.080275383106521 -6.3331921462774696 -0.82588647765290668  15.080280801987008 -6.3331921462774705 -0.8254046810109239  15.080750485089805 -6.3331921462774705 -0.80197086526258965  15.102524489893492 -6.3331921462774696 -0.75087638357497066  15.189317811545045 -6.3331921462774696 -0.70211979420124415  15.32038429609393 -6.3331921462774696 -0.67078827394432194  15.492010130920328 -6.3331921462774696 -0.65703567984717681  15.7017203937147 -6.3331921462774696 -0.65367888300074761  15.945119142392695 -6.3331921462774696 -0.659953565162408  16.21587314877047 -6.3331921462774696 -0.67511851708898152  16.506862241375931 -6.3331921462774696 -0.69535488779159271  16.810224656290167 -6.3331921462774696 -0.7192306860749681  17.117736533856423 -6.3331921462774696 -0.74533236079038812  17.421008039165692 -6.3331921462774696 -0.77290106511185974  17.711765490042811 -6.3331921462774696 -0.80159424094010867  17.981956165807325 -6.3331921462774696 -0.83168749140783771  18.224273432930534 -6.3331921462774696 -0.86235503788469625  18.431769022161411 -6.3331921462774696 -0.89172799503674338  18.599659000881978 -6.3331921462774696 -0.91775780626497716  18.744067590534044 -6.3331921462774696 -0.94143365767887999  18.821175865595571 -6.3331921462774696 -0.95238808769787742  18.836425843008172 -6.3331921462774696 -0.95705414203945438 
 0.50015032173438878 4 0.50053164531246486 1 0.51867591953146874 1 0.53845631288925577 1 0.56048066680890163 1 0.58530592792991465 1 0.6127209367833959 1 0.6422892370589306 1 0.67351953292973621 1 0.70592729478751659 1 0.73903912975604269 1 0.77239045220375369 1 0.80552181308943915 1 0.83797326442377729 1 0.86927513670512191 1 0.89893251706572741 1 0.92640101771309757 1 0.95104029733716622 1 0.97201746732508865 1 1 4
7 0 0  1 2 2  18.836425843008172 -6.3331921462774696 -0.95705414203945438  22.115043792070736 -16.956361653508925 -0.14157258641438275 
 0.5098581888730972 2 1.0000000000000004 2
7 0 0  1 2 2  15.080275383106521 -6.3331921462774696 -0.82588647765290668  20.620115017382492 -16.956361653508925 -0.089368523266913691 
 0.5098581888730972 2 1.0000000000000004 2
8 0 0.50015032173438878
7 0 0  3 39 37  22.115043792070736 -16.956361653508925 -0.14157258641438275  22.108795139522975 -16.956361653508925 -0.14173879454134444  22.077967331698186 -16.956361653508925 -0.14246481648512807  22.020049194102029 -16.956361653508925 -0.14467038665112555  21.952622971633946 -16.956361653508925 -0.14863973504225894  21.869352082736917 -16.956361653508925 -0.15550068691633212  21.772262853126737 -16.956361653508925 -0.16575073670647206  21.664086774873088 -16.956361653508925 -0.17734952883765859  21.547739903129241 -16.956361653508925 -0.18863554861285797  21.426379584941056 -16.956361653508925 -0.19716893850213232  21.303380222167483 -16.956361653508925 -0.20152712043762311  21.182188771897916 -16.956361653508925 -0.20168255824066689  21.066108670760961 -16.956361653508925 -0.19811715081242703  20.958289320482692 -16.956361653508925 -0.19112587141129256  20.861563905267602 -16.956361653508925 -0.18112361937464055  20.778533549911266 -16.956361653508925 -0.16836763600396543  20.71082995818859 -16.956361653508925 -0.15356117635992461  20.661437955855913 -16.956361653508925 -0.13319516921599389  20.627331584795112 -16.956361653508925 -0.11383773579842626  20.616296004733581 -16.956361653508925 -0.089254108716267641  20.628888569578681 -16.956361653508925 -0.061848144105170436  20.663376193025538 -16.956361653508925 -0.044037651217334141  20.715501381705362 -16.956361653508925 -0.03267337975766875  20.783786361930723 -16.956361653508925 -0.02780783450564378  20.86723849750458 -16.956361653508925 -0.026800652957200397  20.964107569156468 -16.956361653508925 -0.029366445309523682  21.07187242518091 -16.956361653508925 -0.035226224778932114  21.1876954352003 -16.956361653508925 -0.042970024164168688  21.30844641278534 -16.956361653508925 -0.052063552751767141  21.43085109266449 -16.956361653508925 -0.061978901867745309  21.551569862368066 -16.956361653508925 -0.072428396998216071  21.667309780817327 -16.956361653508925 -0.083277353015972611  21.774866504777567 -16.956361653508925 -0.094618316040251504  21.871331417791993 -16.956361653508925 -0.10614019822607813  21.953937395658613 -16.956361653508925 -0.11714925998339638  22.020778434722427 -16.956361653508925 -0.12688811190526389  22.078272351209648 -16.956361653508925 -0.13573732619678103  22.108969934675041 -16.956361653508925 -0.13984277904312228  22.115043792070736 -16.956361653508925 -0.14157258641438275 
 0 4 0.02780195088437537 1 0.048716740374543661 1 0.07333561152143038 1 0.10086558805461283 1 0.13067191591670768 1 0.16217404578367203 1 0.1948137328206202 1 0.22807431070012299 1 0.26148378946948309 1 0.29460474533602143 1 0.32700948604485641 1 0.35826169974457134 1 0.38791056353184311 1 0.41550517089045719 1 0.44065720419815069 1 0.46290903710445264 1 0.48243310418721835 1 0.50053164531246486 1 0.51867591953146874 1 0.53845631288925577 1 0.56048066680890163 1 0.58530592792991465 1 0.6127209367833959 1 0.6422892370589306 1 0.67351953292973621 1 0.70592729478751659 1 0.73903912975604269 1 0.77239045220375369 1 0.80552181308943915 1 0.83797326442377729 1 0.86927513670512191 1 0.89893251706572741 1 0.92640101771309757 1 0.95104029733716622 1 0.97201746732508865 1 1 4
8 0.50015032173438878 1
7 0 0  3 39 37  22.115043792070736 -16.956361653508925 -0.14157258641438275  22.108795139522975 -16.956361653508925 -0.14173879454134444  22.077967331698186 -16.956361653508925 -0.14246481648512807  22.020049194102029 -16.956361653508925 -0.14467038665112555  21.952622971633946 -16.956361653508925 -0.14863973504225894  21.869352082736917 -16.956361653508925 -0.15550068691633212  21.772262853126737 -16.956361653508925 -0.16575073670647206  21.664086774873088 -16.956361653508925 -0.17734952883765859  21.547739903129241 -16.956361653508925 -0.18863554861285797  21.426379584941056 -16.956361653508925 -0.19716893850213232  21.303380222167483 -16.956361653508925 -0.20152712043762311  21.182188771897916 -16.956361653508925 -0.20168255824066689  21.066108670760961 -16.956361653508925 -0.19811715081242703  20.958289320482692 -16.956361653508925 -0.19112587141129256  20.861563905267602 -16.956361653508925 -0.18112361937464055  20.778533549911266 -16.956361653508925 -0.16836763600396543  20.71082995818859 -16.956361653508925 -0.15356117635992461  20.661437955855913 -16.956361653508925 -0.13319516921599389  20.627331584795112 -16.956361653508925 -0.11383773579842626  20.616296004733581 -16.956361653508925 -0.089254108716267641  20.628888569578681 -16.956361653508925 -0.061848144105170436  20.663376193025538 -16.956361653508925 -0.044037651217334141  20.715501381705362 -16.956361653508925 -0.03267337975766875  20.783786361930723 -16.956361653508925 -0.02780783450564378  20.86723849750458 -16.956361653508925 -0.026800652957200397  20.964107569156468 -16.956361653508925 -0.029366445309523682  21.07187242518091 -16.956361653508925 -0.035226224778932114  21.1876954352003 -16.956361653508925 -0.042970024164168688  21.30844641278534 -16.956361653508925 -0.052063552751767141  21.43085109266449 -16.956361653508925 -0.061978901867745309  21.551569862368066 -16.956361653508925 -0.072428396998216071  21.667309780817327 -16.956361653508925 -0.083277353015972611  21.774866504777567 -16.956361653508925 -0.094618316040251504  21.871331417791993 -16.956361653508925 -0.10614019822607813  21.953937395658613 -16.956361653508925 -0.11714925998339638  22.020778434722427 -16.956361653508925 -0.12688811190526389  22.078272351209648 -16.956361653508925 -0.13573732619678103  22.108969934675041 -16.956361653508925 -0.13984277904312228  22.115043792070736 -16.956361653508925 -0.14157258641438275 
 0 4 0.02780195088437537 1 0.048716740374543661 1 0.07333561152143038 1 0.10086558805461283 1 0.13067191591670768 1 0.16217404578367203 1 0.1948137328206202 1 0.22807431070012299 1 0.26148378946948309 1 0.29460474533602143 1 0.32700948604485641 1 0.35826169974457134 1 0.38791056353184311 1 0.41550517089045719 1 0.44065720419815069 1 0.46290903710445264 1 0.48243310418721835 1 0.50053164531246486 1 0.51867591953146874 1 0.53845631288925577 1 0.56048066680890163 1 0.58530592792991465 1 0.6127209367833959 1 0.6422892370589306 1 0.67351953292973621 1 0.70592729478751659 1 0.73903912975604269 1 0.77239045220375369 1 0.80552181308943915 1 0.83797326442377729 1 0.86927513670512191 1 0.89893251706572741 1 0.92640101771309757 1 0.95104029733716622 1 0.97201746732508865 1 1 4
Polygon3D 0
PolygonOnTriangulations 0
Surfaces 8
9 0 0 0 0 3 1 21 2 19 2 18.817618835536461 0 -1.3483195701053192  18.817618835536461 -1.85623 -1.3483195701053192  
18.792216751791948 0 -1.3496147309736855  18.792216751791948 -1.85623 -1.3496147309736855  
18.66690053744906 0 -1.3554711786944984  18.66690053744906 -1.85623 -1.3554711786944984  
18.431413697335913 0 -1.3712496266285317  18.431413697335913 -1.85623 -1.3712496266285317  
18.157189393527684 0 -1.3975726461430049  18.157189393527684 -1.85623 -1.3975726461430049  
17.818414058675749 0 -1.4411972902561148  17.818414058675749 -1.85623 -1.4411972902561148  
17.423294073428465 0 -1.5048325789787687  17.423294073428465 -1.85623 -1.5048325789787687  
16.983044361806719 0 -1.5767461411005015  16.983044361806719 -1.85623 -1.5767461411005015  
16.509608519816904 0 -1.6473450377009613  16.509608519816904 -1.85623 -1.6473450377009613  
16.015954526213267 0 -1.7026058354668085  16.015954526213267 -1.85623 -1.7026058354668085  
15.515875107114715 0 -1.7342656842235984  15.515875107114715 -1.85623 -1.7342656842235984  
15.0233792529725 0 -1.7419741645554527  15.0233792529725 -1.85623 -1.7419741645554527  
14.551864033285366 0 -1.728279859245301  14.551864033285366 -1.85623 -1.728279859245301  
14.114111093187212 0 -1.6946792706937139  14.114111093187212 -1.85623 -1.6946792706937139  
13.721610305876521 0 -1.6433672638686905  13.721610305876521 -1.85623 -1.6433672638686905  
13.384917402526934 0 -1.5756571047086738  13.384917402526934 -1.85623 -1.5756571047086738  
13.110623544061484 0 -1.4954476819445297  13.110623544061484 -1.85623 -1.4954476819445297  
12.911055858589433 0 -1.3826577567295717  12.911055858589433 -1.85623 -1.3826577567295717  
12.774423510007514 0 -1.2754175969897297  12.774423510007514 -1.85623 -1.2754175969897297  
12.744827631955378 0 -1.1829298446072154  12.744827631955378 -1.85623 -1.1829298446072154  
12.7456 0 -1.1362799999999997  12.7456 -1.85623 -1.1362799999999997  

0 4
0.02780195088437537 1
0.048716740374543661 1
0.07333561152143038 1
0.10086558805461283 1
0.13067191591670768 1
0.16217404578367203 1
0.1948137328206202 1
0.22807431070012299 1
0.26148378946948309 1
0.29460474533602143 1
0.32700948604485641 1
0.35826169974457134 1
0.38791056353184311 1
0.41550517089045719 1
0.44065720419815069 1
0.46290903710445264 1
0.48243310418721835 1
0.50015032173438878 4

0 2
0.19628881151362801 2

9 0 0 0 0 3 1 22 2 20 2 12.7456 0 -1.1362799999999997  12.7456 -1.85623 -1.1362799999999997  
12.745616623498897 0 -1.1352759661772533  12.745616623498897 -1.85623 -1.1352759661772533  
12.746758481168994 0 -1.0864380089494965  12.746758481168994 -1.85623 -1.0864380089494965  
12.782803339241287 0 -0.97961446421684228  12.782803339241287 -1.85623 -0.97961446421684228  
12.923954313906171 0 -0.87660172209119014  12.923954313906171 -1.85623 -0.87660172209119014  
13.136416167063592 0 -0.80917621224614211  13.136416167063592 -1.85623 -0.80917621224614211  
13.414180695219132 0 -0.7777191255874214  13.414180695219132 -1.85623 -0.7777191255874214  
13.753362836145282 0 -0.76730297078205634  13.753362836145282 -1.85623 -0.76730297078205634  
14.146866278830537 0 -0.77640681674428125  14.146866278830537 -1.85623 -0.77640681674428125  
14.584461504541093 0 -0.8035894926208913  14.584461504541093 -1.85623 -0.8035894926208913  
15.054696621780669 0 -0.84100961992063616  15.054696621780669 -1.85623 -0.84100961992063616  
15.544881550988924 0 -0.88581154653908345  15.544881550988924 -1.85623 -0.88581154653908345  
16.041740358262988 0 -0.93518395246548225  16.041740358262988 -1.85623 -0.93518395246548225  
16.531718025749438 0 -0.98768246796099346  16.531718025749438 -1.85623 -0.98768246796099346  
17.001440577159254 0 -1.042728271327328  17.001440577159254 -1.85623 -1.042728271327328  
17.437881272923434 0 -1.1010270314832145  17.437881272923434 -1.85623 -1.1010270314832145  
17.829237857486994 0 -1.1609772369077205  17.829237857486994 -1.85623 -1.1609772369077205  
18.164304612817308 0 -1.2187979521855234  18.164304612817308 -1.85623 -1.2187979521855234  
18.435378751646191 0 -1.2702985401840898  18.435378751646191 -1.85623 -1.2702985401840898  
18.668518991356201 0 -1.3172771545914554  18.668518991356201 -1.85623 -1.3172771545914554  
18.79303386665304 0 -1.3388454662918157  18.79303386665304 -1.85623 -1.3388454662918157  
18.817618835536461 0 -1.3483195701053192  18.817618835536461 -1.85623 -1.3483195701053192  

0.50015032173438878 4
0.50053164531246486 1
0.51867591953146874 1
0.53845631288925577 1
0.56048066680890163 1
0.58530592792991465 1
0.6127209367833959 1
0.6422892370589306 1
0.67351953292973621 1
0.70592729478751659 1
0.73903912975604269 1
0.77239045220375369 1
0.80552181308943915 1
0.83797326442377729 1
0.86927513670512191 1
0.89893251706572741 1
0.92640101771309757 1
0.95104029733716622 1
0.97201746732508865 1
1 4

0 2
0.19628881151362801 2

9 0 0 0 0 3 1 21 2 19 2 18.817618835536461 -1.85623 -1.3483195701053192  18.836425843008172 -6.3331921462774696 -0.95705414203945438  
18.792216751791948 -1.85623 -1.3496147309736855  18.820722682114702 -6.3331921462774696 -0.95755274430162107  
18.66690053744906 -1.85623 -1.3554711786944984  18.743251626926853 -6.3331921462774696 -0.95975670435125404  
18.431413697335913 -1.85623 -1.3712496266285317  18.597695701412114 -6.3331921462774696 -0.96618918636458839  
18.157189393527684 -1.85623 -1.3975726461430049  18.428234391003475 -6.3331921462774696 -0.97749487246171074  
17.818414058675749 -1.85623 -1.4411972902561148  18.218936507528582 -6.3331921462774696 -0.99679175919841767  
17.423294073428465 -1.85623 -1.5048325789787687  17.974890247189158 -6.3331921462774696 -1.0254197526036046  
16.983044361806719 -1.85623 -1.5767461411005015  17.702974455956465 -6.3331921462774696 -1.0578023085715254  
16.509608519816904 -1.85623 -1.6473450377009613  17.410528972319746 -6.3331921462774696 -1.0893932128437962  
16.015954526213267 -1.85623 -1.7026058354668085  17.105505691885604 -6.3331921462774696 -1.1135248347819506  
15.515875107114715 -1.85623 -1.7342656842235984  16.796394452629656 -6.3331921462774696 -1.1262982780532607  
15.0233792529725 -1.85623 -1.7419741645554527  16.491857149620689 -6.3331921462774696 -1.1276131945046743  
14.551864033285366 -1.85623 -1.728279859245301  16.200191284312012 -6.3331921462774696 -1.1187576234284118  
14.114111093187212 -1.85623 -1.6946792706937139  15.929308666497048 -6.3331921462774696 -1.1005116875330434  
13.721610305876521 -1.85623 -1.6433672638686905  15.68632561587939 -6.3331921462774696 -1.0739844275989154  
13.384917402526934 -1.85623 -1.5756571047086738  15.477776481153423 -6.3331921462774696 -1.0398572455831308  
13.110623544061484 -1.85623 -1.4954476819445297  15.307756318248634 -6.3331921462774696 -1.0000332934504228  
12.911055858589433 -1.85623 -1.3826577567295717  15.183791368634459 -6.3331921462774696 -0.94493444744389277  
12.774423510007514 -1.85623 -1.2754175969897297  15.098774445058195 -6.3331921462774696 -0.89280389961729678  
12.744827631955378 -1.85623 -1.1829298446072154  15.080023608786874 -6.3331921462774714 -0.84827191723829198  
12.7456 -1.85623 -1.1362799999999997  15.080275383106521 -6.3331921462774696 -0.82588647765290668  

0 4
0.02780195088437537 1
0.048716740374543661 1
0.07333561152143038 1
0.10086558805461283 1
0.13067191591670768 1
0.16217404578367203 1
0.1948137328206202 1
0.22807431070012299 1
0.26148378946948309 1
0.29460474533602143 1
0.32700948604485641 1
0.35826169974457134 1
0.38791056353184311 1
0.41550517089045719 1
0.44065720419815069 1
0.46290903710445264 1
0.48243310418721835 1
0.50015032173438878 4

0.19628881151362801 2
0.5098581888730972 2

9 0 0 0 0 3 1 22 2 20 2 12.7456 -1.85623 -1.1362799999999997  15.080275383106521 -6.3331921462774696 -0.82588647765290668  
12.745616623498897 -1.85623 -1.1352759661772533  15.080280801987008 -6.3331921462774705 -0.8254046810109239  
12.746758481168994 -1.85623 -1.0864380089494965  15.080750485089805 -6.3331921462774705 -0.80197086526258965  
12.782803339241287 -1.85623 -0.97961446421684228  15.102524489893492 -6.3331921462774696 -0.75087638357497066  
12.923954313906171 -1.85623 -0.87660172209119014  15.189317811545045 -6.3331921462774696 -0.70211979420124415  
13.136416167063592 -1.85623 -0.80917621224614211  15.32038429609393 -6.3331921462774696 -0.67078827394432194  
13.414180695219132 -1.85623 -0.7777191255874214  15.492010130920328 -6.3331921462774696 -0.65703567984717681  
13.753362836145282 -1.85623 -0.76730297078205634  15.7017203937147 -6.3331921462774696 -0.65367888300074761  
14.146866278830537 -1.85623 -0.77640681674428125  15.945119142392695 -6.3331921462774696 -0.659953565162408  
14.584461504541093 -1.85623 -0.8035894926208913  16.21587314877047 -6.3331921462774696 -0.67511851708898152  
15.054696621780669 -1.85623 -0.84100961992063616  16.506862241375931 -6.3331921462774696 -0.69535488779159271  
15.544881550988924 -1.85623 -0.88581154653908345  16.810224656290167 -6.3331921462774696 -0.7192306860749681  
16.041740358262988 -1.85623 -0.93518395246548225  17.117736533856423 -6.3331921462774696 -0.74533236079038812  
16.531718025749438 -1.85623 -0.98768246796099346  17.421008039165692 -6.3331921462774696 -0.77290106511185974  
17.001440577159254 -1.85623 -1.042728271327328  17.711765490042811 -6.3331921462774696 -0.80159424094010867  
17.437881272923434 -1.85623 -1.1010270314832145  17.981956165807325 -6.3331921462774696 -0.83168749140783771  
17.829237857486994 -1.85623 -1.1609772369077205  18.224273432930534 -6.3331921462774696 -0.86235503788469625  
18.164304612817308 -1.85623 -1.2187979521855234  18.431769022161411 -6.3331921462774696 -0.89172799503674338  
18.435378751646191 -1.85623 -1.2702985401840898  18.599659000881978 -6.3331921462774696 -0.91775780626497716  
18.668518991356201 -1.85623 -1.3172771545914554  18.744067590534044 -6.3331921462774696 -0.94143365767887999  
18.79303386665304 -1.85623 -1.3388454662918157  18.821175865595571 -6.3331921462774696 -0.95238808769787742  
18.817618835536461 -1.85623 -1.3483195701053192  18.836425843008172 -6.3331921462774696 -0.95705414203945438  

0.50015032173438878 4
0.50053164531246486 1
0.51867591953146874 1
0.53845631288925577 1
0.56048066680890163 1
0.58530592792991465 1
0.6127209367833959 1
0.6422892370589306 1
0.67351953292973621 1
0.70592729478751659 1
0.73903912975604269 1
0.77239045220375369 1
0.80552181308943915 1
0.83797326442377729 1
0.86927513670512191 1
0.89893251706572741 1
0.92640101771309757 1
0.95104029733716622 1
0.97201746732508865 1
1 4

0.19628881151362801 2
0.5098581888730972 2

9 0 0 0 0 3 1 21 2 19 2 18.836425843008172 -6.3331921462774696 -0.95705414203945438  22.115043792070736 -16.956361653508925 -0.14157258641438275  
18.820722682114702 -6.3331921462774696 -0.95755274430162107  22.108795139522975 -16.956361653508925 -0.14173879454134444  
18.743251626926853 -6.3331921462774696 -0.95975670435125404  22.077967331698186 -16.956361653508925 -0.14246481648512807  
18.597695701412114 -6.3331921462774696 -0.96618918636458839  22.020049194102029 -16.956361653508925 -0.14467038665112555  
18.428234391003475 -6.3331921462774696 -0.97749487246171074  21.952622971633946 -16.956361653508925 -0.14863973504225894  
18.218936507528582 -6.3331921462774696 -0.99679175919841767  21.869352082736917 -16.956361653508925 -0.15550068691633212  
17.974890247189158 -6.3331921462774696 -1.0254197526036046  21.772262853126737 -16.956361653508925 -0.16575073670647206  
17.702974455956465 -6.3331921462774696 -1.0578023085715254  21.664086774873088 -16.956361653508925 -0.17734952883765859  
17.410528972319746 -6.3331921462774696 -1.0893932128437962  21.547739903129241 -16.956361653508925 -0.18863554861285797  
17.105505691885604 -6.3331921462774696 -1.1135248347819506  21.426379584941056 -16.956361653508925 -0.19716893850213232  
16.796394452629656 -6.3331921462774696 -1.1262982780532607  21.303380222167483 -16.956361653508925 -0.20152712043762311  
16.491857149620689 -6.3331921462774696 -1.1276131945046743  21.182188771897916 -16.956361653508925 -0.20168255824066689  
16.200191284312012 -6.3331921462774696 -1.1187576234284118  21.066108670760961 -16.956361653508925 -0.19811715081242703  
15.929308666497048 -6.3331921462774696 -1.1005116875330434  20.958289320482692 -16.956361653508925 -0.19112587141129256  
15.68632561587939 -6.3331921462774696 -1.0739844275989154  20.861563905267602 -16.956361653508925 -0.18112361937464055  
15.477776481153423 -6.3331921462774696 -1.0398572455831308  20.778533549911266 -16.956361653508925 -0.16836763600396543  
15.307756318248634 -6.3331921462774696 -1.0000332934504228  20.71082995818859 -16.956361653508925 -0.15356117635992461  
15.183791368634459 -6.3331921462774696 -0.94493444744389277  20.661437955855913 -16.956361653508925 -0.13319516921599389  
15.098774445058195 -6.3331921462774696 -0.89280389961729678  20.62754879873826 -16.956361653508925 -0.11396101788066004  
15.080023608786874 -6.3331921462774714 -0.84827191723829198  20.620038888659021 -16.956361653508925 -0.097588362899277012  
15.080275383106521 -6.3331921462774696 -0.82588647765290668  20.620115017382492 -16.956361653508925 -0.089368523266913691  

0 4
0.02780195088437537 1
0.048716740374543661 1
0.07333561152143038 1
0.10086558805461283 1
0.13067191591670768 1
0.16217404578367203 1
0.1948137328206202 1
0.22807431070012299 1
0.26148378946948309 1
0.29460474533602143 1
0.32700948604485641 1
0.35826169974457134 1
0.38791056353184311 1
0.41550517089045719 1
0.44065720419815069 1
0.46290903710445264 1
0.48243310418721835 1
0.50015032173438878 4

0.5098581888730972 2
1.0000000000000004 2

9 0 0 0 0 3 1 22 2 20 2 15.080275383106521 -6.3331921462774696 -0.82588647765290668  20.620115017382492 -16.956361653508925 -0.089368523266913691  
15.080280801987008 -6.3331921462774705 -0.8254046810109239  20.620116655883411 -16.956361653508925 -0.089191609558455856  
15.080750485089805 -6.3331921462774705 -0.80197086526258965  20.620278375897364 -16.956361653508925 -0.080587032189335245  
15.102524489893492 -6.3331921462774696 -0.75087638357497066  20.628888569578681 -16.956361653508925 -0.061848144105170436  
15.189317811545045 -6.3331921462774696 -0.70211979420124415  20.663376193025538 -16.956361653508925 -0.044037651217334141  
15.32038429609393 -6.3331921462774696 -0.67078827394432194  20.715501381705362 -16.956361653508925 -0.03267337975766875  
15.492010130920328 -6.3331921462774696 -0.65703567984717681  20.783786361930723 -16.956361653508925 -0.02780783450564378  
15.7017203937147 -6.3331921462774696 -0.65367888300074761  20.86723849750458 -16.956361653508925 -0.026800652957200397  
15.945119142392695 -6.3331921462774696 -0.659953565162408  20.964107569156468 -16.956361653508925 -0.029366445309523682  
16.21587314877047 -6.3331921462774696 -0.67511851708898152  21.07187242518091 -16.956361653508925 -0.035226224778932114  
16.506862241375931 -6.3331921462774696 -0.69535488779159271  21.1876954352003 -16.956361653508925 -0.042970024164168688  
16.810224656290167 -6.3331921462774696 -0.7192306860749681  21.30844641278534 -16.956361653508925 -0.052063552751767141  
17.117736533856423 -6.3331921462774696 -0.74533236079038812  21.43085109266449 -16.956361653508925 -0.061978901867745309  
17.421008039165692 -6.3331921462774696 -0.77290106511185974  21.551569862368066 -16.956361653508925 -0.072428396998216071  
17.711765490042811 -6.3331921462774696 -0.80159424094010867  21.667309780817327 -16.956361653508925 -0.083277353015972611  
17.981956165807325 -6.3331921462774696 -0.83168749140783771  21.774866504777567 -16.956361653508925 -0.094618316040251504  
18.224273432930534 -6.3331921462774696 -0.86235503788469625  21.871331417791993 -16.956361653508925 -0.10614019822607813  
18.431769022161411 -6.3331921462774696 -0.89172799503674338  21.953937395658613 -16.956361653508925 -0.11714925998339638  
18.599659000881978 -6.3331921462774696 -0.91775780626497716  22.020778434722427 -16.956361653508925 -0.12688811190526389  
18.744067590534044 -6.3331921462774696 -0.94143365767887999  22.078272351209648 -16.956361653508925 -0.13573732619678103  
18.821175865595571 -6.3331921462774696 -0.95238808769787742  22.108969934675041 -16.956361653508925 -0.13984277904312228  
18.836425843008172 -6.3331921462774696 -0.95705414203945438  22.115043792070736 -16.956361653508925 -0.14157258641438275  

0.50015032173438878 4
0.50053164531246486 1
0.51867591953146874 1
0.53845631288925577 1
0.56048066680890163 1
0.58530592792991465 1
0.6127209367833959 1
0.6422892370589306 1
0.67351953292973621 1
0.70592729478751659 1
0.73903912975604269 1
0.77239045220375369 1
0.80552181308943915 1
0.83797326442377729 1
0.86927513670512191 1
0.89893251706572741 1
0.92640101771309757 1
0.95104029733716622 1
0.97201746732508865 1
1 4

0.5098581888730972 2
1.0000000000000004 2

1 18.817618835536461 0 -1.3483195701053192 -0 1 -0 -0.99939082701909576 -0 0.034899496702501018 -0.034899496702501018 -0 -0.99939082701909576 
1 22.115043792070736 -16.956361653508925 -0.14157258641438275 -0 1 -0 -0.99939082701909576 -0 0.034899496702500983 -0.034899496702500983 -0 -0.99939082701909576 
Triangulations 0

TShapes 40
Ve
6.07201883553646e-07
18.8176188355365 0 -1.34831957010532
0 0

0101101
*
Ve
1e-07
18.8176188355365 -1.85623 -1.34831957010532
0 0

0101101
*
Ed
 1e-07 1 1 0
1  1 0 0 0.196288811513628
2  1 1 0 0 0.196288811513628
2  2 2 0 0 0.196288811513628
0

0101000
+40 0 -39 0 *
Ve
6.07201883553646e-07
12.7456 0 -1.13628
0 0

0101101
*
Ed
 1e-07 1 1 0
1  2 0 0 0.500150321734389
2  3 1 0 0 0.500150321734389
0

0101000
+40 0 -37 0 *
Ve
1e-07
12.7456 -1.85623 -1.13628
0 0

0101101
*
Ed
 1e-07 1 1 0
1  3 0 0 0.196288811513628
2  4 1 0 0 0.196288811513628
2  5 2 0 0 0.196288811513628
4 C2 1 0 2 0
0

0101000
+37 0 -35 0 *
Ed
 1e-07 1 1 0
1  4 0 0 0.500150321734389
2  6 1 0 0 0.500150321734389
2  7 3 0 0 0.500150321734389
0

0101000
+39 0 -35 0 *
Wi

0101100
-38 0 +36 0 +34 0 -33 0 *
Fa
1  1e-07 1 0

0111000
+32 0 *
Ed
 1e-07 1 1 0
1  5 0 0.500150321734389 1
2  8 2 0 0.500150321734389 1
0

0101000
+37 0 -40 0 *
Ed
 1e-07 1 1 0
1  6 0 0.500150321734389 1
2  9 2 0 0.500150321734389 1
2  10 4 0 0.500150321734389 1
0

0101000
+35 0 -39 0 *
Wi

0101100
-34 0 +30 0 +38 0 -29 0 *
Fa
1  1e-07 2 0

0101000
+28 0 *
Ve
1e-07
18.8364258430082 -6.33319214627747 -0.957054142039454
0 0

0101101
*
Ed
 1e-07 1 1 0
1  7 0 0.196288811513628 0.509858188873097
2  11 3 0 0.196288811513628 0.509858188873097
2  12 4 0 0.196288811513628 0.509858188873097
0

0101000
+39 0 -26 0 *
Ve
1e-07
15.0802753831065 -6.33319214627747 -0.825886477652907
0 0

0101101
*
Ed
 1e-07 1 1 0
1  8 0 0.196288811513628 0.509858188873097
2  13 3 0 0.196288811513628 0.509858188873097
2  14 4 0 0.196288811513628 0.509858188873097
4 C2 3 0 4 0
0

0101000
+35 0 -24 0 *
Ed
 1e-07 1 1 0
1  9 0 0 0.500150321734389
2  15 3 0 0 0.500150321734389
2  16 5 0 0 0.500150321734389
0

0101000
+26 0 -24 0 *
Wi

0101100
-25 0 +33 0 +23 0 -22 0 *
Fa
1  1e-07 3 0

0101000
+21 0 *
Ed
 1e-07 1 1 0
1  10 0 0.500150321734389 1
2  17 4 0 0.500150321734389 1
2  18 6 0 0.500150321734389 1
0

0101000
+24 0 -26 0 *
Wi

0101100
-23 0 +29 0 +25 0 -19 0 *
Fa
1  1e-07 4 0

0101000
+18 0 *
Ve
1.49492877468824e-07
22.1150437920707 -16.9563616535089 -0.141572586414383
0 0

0101101
*
Ed
 1e-07 1 1 0
1  11 0 0.509858188873097 1
2  19 5 0 0.509858188873097 1
2  20 6 0 0.509858188873097 1
0

0101000
+26 0 -16 0 *
Ve
1.49492877468824e-07
20.6201150173825 -16.9563616535089 -0.0893685232669137
0 0

0101101
*
Ed
 1e-07 1 1 0
1  12 0 0.509858188873097 1
2  21 5 0 0.509858188873097 1
2  22 6 0 0.509858188873097 1
4 C2 5 0 6 0
0

0101000
+24 0 -14 0 *
Ed
 1e-07 1 1 0
1  13 0 0 0.500150321734389
2  23 5 0 0 0.500150321734389
0

0101000
+16 0 -14 0 *
Wi

0101100
-15 0 +22 0 +13 0 -12 0 *
Fa
1  1e-07 5 0

0101000
+11 0 *
Ed
 1e-07 1 1 0
1  14 0 0.500150321734389 1
2  24 6 0 0.500150321734389 1
0

0101000
+14 0 -16 0 *
Wi

0101100
-13 0 +19 0 +15 0 -9 0 *
Fa
1  1e-07 6 0

0101000
+8 0 *
Wi

0101100
+36 0 +30 0 *
Fa
0  1e-07 7 0

0101000
-6 0 *
Wi

0101100
+12 0 +9 0 *
Fa
0  1e-07 8 0

0101000
-4 0 *
Sh

0101100
-31 0 -27 0 -20 0 -17 0 -10 0 -7 0 -5 0 +3 0 *
So

1100000
+2 0 *

+1 0 